<?xml version="1.0" standalone="no"?>
<!DOCTYPE svg PUBLIC "-//W3C//DTD SVG 20010904//EN"
 "http://www.w3.org/TR/2001/REC-SVG-20010904/DTD/svg10.dtd">
<svg version="1.0" xmlns="http://www.w3.org/2000/svg"
 width="1024.000000pt" height="1024.000000pt" viewBox="0 0 1024.000000 1024.000000"
 preserveAspectRatio="xMidYMid meet">
<metadata>
Created by potrace 1.14, written by Peter Selinger 2001-2017
</metadata>
<g transform="translate(0.000000,1024.000000) scale(0.100000,-0.100000)"
fill="#000000" stroke="none">
<path d="M1720 10227 c0 -8 14 -20 30 -26 17 -5 30 -8 30 -6 0 2 -13 13 -30
25 -23 17 -30 18 -30 7z"/>
<path d="M1870 10200 c0 -17 2 -19 14 -8 14 13 12 28 -5 28 -5 0 -9 -9 -9 -20z"/>
<path d="M1720 10165 c0 -5 26 -39 50 -64 14 -14 12 -17 -20 -27 l-35 -11 29
-8 c19 -5 31 -4 36 5 4 7 14 10 21 8 8 -3 -3 -13 -28 -25 -30 -15 -40 -17 -36
-7 9 24 -13 15 -27 -11 -7 -14 -17 -25 -21 -25 -5 0 -7 -12 -5 -27 2 -16 1
-20 -1 -10 -6 23 -23 22 -23 -3 0 -24 -15 -27 -24 -4 -8 21 -8 26 3 20 5 -3
12 1 15 10 9 23 7 34 -4 34 -5 0 -10 -7 -10 -15 0 -9 -6 -12 -16 -8 -13 5 -15
1 -10 -15 3 -12 9 -31 12 -42 3 -11 1 -20 -5 -20 -6 0 -11 7 -11 15 0 8 -4 15
-10 15 -13 0 -13 -6 0 -30 7 -13 7 -21 -2 -26 -7 -4 -8 -3 -4 4 4 7 1 12 -8
12 -23 0 -20 -19 6 -40 17 -13 28 -16 46 -9 29 11 32 11 32 -1 0 -5 -11 -10
-25 -10 -17 0 -29 -7 -35 -22 l-9 -23 0 22 c-1 28 -12 35 -29 17 -7 -8 -8 -14
-2 -14 5 0 10 -4 10 -10 0 -5 -7 -7 -15 -4 -11 5 -13 2 -9 -10 3 -9 10 -16 15
-16 5 0 9 -5 9 -10 0 -6 -11 -3 -25 6 -13 8 -29 13 -36 9 -6 -4 -15 -1 -20 6
-6 10 -9 8 -9 -10 0 -19 4 -22 24 -17 16 4 26 1 29 -8 3 -8 16 -12 34 -10 16
2 20 1 8 -2 -11 -4 -26 -11 -32 -16 -9 -7 -13 -7 -13 0 0 5 -13 12 -30 14 -36
5 -39 -6 -6 -27 24 -16 42 -55 25 -55 -17 0 -24 5 -21 16 1 7 -8 9 -24 6 -16
-3 -25 -1 -21 5 3 5 2 15 -2 22 -5 8 -11 9 -15 3 -3 -5 3 -21 14 -35 11 -14
17 -32 14 -41 -3 -9 -1 -16 5 -16 6 0 11 5 11 11 0 8 5 8 15 -1 12 -10 15 -10
15 0 0 8 3 11 6 8 8 -8 -15 -50 -24 -44 -13 8 -33 -10 -36 -30 -2 -14 -10 -18
-28 -16 -14 2 -30 -4 -37 -12 -10 -12 -9 -14 7 -9 11 2 23 -1 27 -7 5 -8 3
-11 -6 -8 -22 7 -50 -31 -43 -58 3 -13 2 -24 -3 -24 -5 0 -10 -11 -11 -25 -1
-19 3 -25 19 -25 18 0 20 2 9 16 -11 12 -10 18 5 32 18 16 18 16 5 -1 -11 -14
-11 -20 -2 -26 7 -4 10 -15 6 -24 -4 -12 -11 -14 -30 -7 -15 6 -24 6 -24 0 0
-6 6 -10 13 -10 6 0 4 -5 -7 -11 -14 -9 -20 -8 -27 2 -10 16 -40 2 -48 -22 -3
-12 -2 -12 12 -1 13 11 17 10 27 -7 9 -17 8 -20 -5 -15 -8 4 -15 2 -15 -4 0
-6 6 -13 13 -15 9 -4 9 -6 -1 -6 -7 -1 -20 6 -28 14 -18 17 -44 9 -44 -14 0
-13 2 -13 9 -2 5 7 14 12 20 10 6 -2 1 -15 -14 -31 -25 -27 -25 -29 -9 -53 13
-20 14 -28 4 -40 -9 -10 -9 -15 -1 -15 6 0 11 5 11 10 0 6 9 10 20 10 11 0 20
-4 20 -10 0 -5 -9 -10 -20 -10 -11 0 -20 -5 -20 -11 0 -5 -5 -7 -10 -4 -18 11
-35 -12 -35 -47 0 -18 -6 -38 -14 -44 -12 -9 -13 -16 -4 -35 8 -17 12 -19 12
-8 1 20 41 33 41 14 0 -7 -6 -16 -12 -18 -10 -4 -9 -6 1 -6 10 -1 11 -4 2 -14
-6 -8 -12 -24 -14 -37 -6 -35 -30 -39 -25 -4 2 15 -2 29 -10 31 -8 3 -10 -1
-5 -13 5 -13 3 -15 -8 -9 -12 8 -12 6 0 -8 7 -9 10 -17 5 -17 -19 0 -30 16
-30 40 0 14 5 28 10 32 7 5 5 8 -4 8 -17 -1 -50 -23 -50 -35 0 -4 7 -5 15 -2
24 10 27 -11 4 -32 -20 -18 -20 -21 -5 -36 9 -9 24 -18 33 -19 22 -3 30 -26 9
-26 -9 0 -16 -8 -16 -20 0 -11 -4 -20 -8 -20 -5 0 -7 -13 -4 -30 2 -16 9 -30
14 -30 5 0 6 -5 3 -10 -4 -6 -11 -8 -16 -5 -5 4 -9 -1 -9 -9 0 -9 6 -16 13
-16 7 0 4 -7 -7 -15 -11 -8 -16 -15 -10 -15 11 0 36 -51 28 -59 -10 -10 -59
28 -62 49 -2 13 1 20 6 16 5 -3 13 1 16 10 8 21 8 26 -2 20 -5 -3 -9 1 -9 9 0
8 4 12 9 9 4 -3 8 -1 8 5 0 12 -28 41 -41 41 -5 0 -9 5 -9 10 0 6 9 10 20 10
24 0 27 15 4 24 -22 8 -24 8 -24 -8 0 -8 -6 -17 -12 -19 -10 -4 -10 -8 1 -15
13 -9 13 -13 0 -28 -8 -10 -9 -15 -3 -11 17 10 22 -12 15 -63 -5 -32 -9 -41
-15 -31 -8 12 -11 11 -16 -5 -9 -22 6 -44 29 -44 14 0 14 2 1 10 -13 8 -13 10
2 10 9 0 20 -5 24 -11 4 -8 9 -7 15 2 6 10 9 10 9 2 0 -6 -6 -15 -12 -19 -15
-10 -79 -14 -74 -5 3 4 -7 11 -20 18 -20 9 -24 8 -24 -4 0 -8 -4 -11 -10 -8
-5 3 -10 1 -10 -4 0 -6 -5 -11 -11 -11 -6 0 -9 7 -5 15 3 8 0 15 -6 15 -7 0
-3 7 8 15 18 13 18 14 1 15 -13 0 -17 5 -12 19 3 11 1 22 -4 25 -6 4 -8 13 -4
21 8 22 -6 18 -29 -7 -13 -16 -21 -19 -24 -10 -9 19 -20 14 -21 -9 -2 -17 3
-20 22 -16 18 3 26 -1 30 -14 9 -28 -3 -41 -26 -29 -11 6 -17 16 -13 21 4 7
-1 7 -15 0 -12 -7 -21 -8 -21 -2 0 5 -6 11 -12 14 -7 2 -5 3 5 2 9 -2 17 2 18
8 0 7 2 22 5 35 3 19 0 22 -29 21 -27 0 -29 -2 -12 -9 20 -9 20 -9 -2 -15 -13
-4 -19 -13 -16 -21 7 -19 -5 -34 -22 -28 -17 7 -47 63 -39 75 2 4 16 4 30 -2
22 -8 25 -7 20 6 -3 8 -2 15 3 15 12 0 21 39 10 46 -5 3 -9 -4 -9 -15 0 -12
-4 -21 -10 -21 -5 0 -10 7 -10 15 0 8 -5 15 -11 15 -6 0 -9 -9 -6 -19 4 -15
-2 -20 -24 -23 -23 -4 -29 -1 -29 14 0 21 -11 23 -29 6 -11 -11 -13 -10 -7 5
3 10 6 20 6 22 0 2 10 1 22 -3 17 -4 20 -2 15 11 -7 19 15 39 36 31 12 -4 14
-1 10 15 -3 11 -8 19 -12 17 -15 -10 -56 24 -57 46 -2 66 -5 77 -21 81 -14 4
-12 5 5 6 12 0 22 -3 22 -9 0 -14 0 -17 10 -49 5 -19 4 -33 -3 -41 -9 -9 -4
-11 22 -5 23 5 36 3 43 -6 8 -11 9 -10 4 4 -6 20 5 22 22 5 7 -7 12 -9 12 -4
0 15 -30 37 -42 31 -7 -4 -5 0 5 8 10 9 21 30 24 49 4 31 4 32 -11 13 -8 -11
-16 -15 -16 -8 0 6 -8 9 -18 6 -12 -3 -18 2 -19 16 -2 22 13 29 19 10 5 -15
44 22 50 49 7 25 1 27 -24 8 -12 -9 -14 -16 -7 -23 19 -19 -11 -26 -31 -8 -24
22 -44 11 -30 -16 7 -13 7 -19 0 -19 -5 0 -10 6 -10 14 0 9 -9 12 -27 9 l-28
-3 25 12 c14 6 26 13 28 14 1 0 5 18 7 39 3 20 8 41 11 46 3 5 -4 9 -16 9 -19
0 -20 1 -6 16 19 19 20 35 4 53 -11 11 -7 13 22 7 19 -4 37 -11 38 -16 5 -13
39 -13 47 0 4 6 3 10 -2 9 -4 -1 -15 -1 -23 0 -13 1 -13 2 0 11 10 6 11 10 3
10 -7 0 -13 7 -13 16 0 11 -5 14 -16 10 -14 -5 -15 -4 -4 9 7 8 8 15 2 15 -5
0 -12 9 -15 21 -4 16 -3 18 9 8 21 -18 29 15 10 43 -9 12 -16 25 -16 29 0 13
44 18 52 6 4 -7 8 -8 8 -1 0 5 -7 19 -15 30 -12 15 -14 16 -15 3 0 -10 -8 -15
-22 -14 -16 1 -22 9 -23 31 -2 38 4 56 18 47 6 -4 7 -1 2 6 -4 7 -16 11 -26 8
-11 -3 -19 -1 -19 4 0 11 40 12 56 1 6 -4 13 -14 16 -21 3 -12 6 -12 11 2 3 9
2 17 -3 17 -5 0 -7 6 -4 13 3 9 -10 12 -53 12 -51 -1 -58 -4 -55 -21 2 -15 1
-16 -7 -5 -14 21 -2 41 25 41 15 0 24 6 24 15 0 8 7 15 15 15 8 0 15 4 15 9 0
13 -26 21 -36 11 -5 -5 -19 0 -33 11 -19 16 -20 20 -7 25 8 3 20 3 26 -1 5 -3
10 -1 10 4 0 11 -13 15 -37 12 -6 -1 -14 3 -17 8 -3 5 -14 7 -24 4 -10 -2 -24
3 -31 11 -8 9 -10 16 -7 16 4 0 0 8 -10 17 -11 11 -13 18 -5 21 13 4 15 22 2
22 -5 0 -12 -9 -16 -19 -3 -11 -12 -18 -19 -15 -7 3 -16 -2 -20 -11 -3 -10 1
-18 11 -22 10 -4 19 -1 21 6 2 7 10 1 18 -14 17 -33 18 -43 2 -27 -15 15 -48
-3 -48 -27 0 -15 -5 -18 -22 -13 -13 3 -19 1 -15 -5 6 -10 -26 -9 -77 3 -26 6
-28 5 -15 -8 8 -9 17 -12 20 -6 4 5 9 4 12 -5 8 -20 -8 -41 -24 -32 -10 5 -11
5 -4 -2 15 -16 65 -25 65 -13 0 6 -4 8 -10 5 -16 -10 -11 11 6 26 13 10 17 10
24 -1 4 -7 6 -19 3 -27 -3 -9 0 -11 10 -8 20 8 29 -21 11 -35 -8 -8 -14 -8
-14 -2 0 5 -13 15 -30 21 -26 9 -30 8 -30 -9 0 -10 6 -21 13 -23 8 -4 8 -6 0
-6 -12 -1 -6 -38 10 -58 6 -9 6 -13 -2 -13 -6 0 -11 5 -11 10 0 6 -7 10 -15
10 -8 0 -15 -6 -15 -12 0 -10 -3 -9 -9 1 -5 7 -11 9 -14 4 -7 -11 28 -44 37
-36 3 4 6 0 6 -8 0 -8 -5 -20 -12 -27 -9 -9 -8 -12 4 -12 9 0 18 5 20 11 2 5
14 -4 27 -22 16 -21 20 -34 13 -37 -7 -2 -12 -10 -12 -18 0 -9 -5 -12 -10 -9
-6 4 -8 10 -6 13 2 4 -7 13 -21 19 -23 11 -25 10 -20 -7 3 -11 1 -20 -4 -20
-5 0 -9 -5 -9 -10 0 -6 10 -8 23 -5 15 4 28 1 36 -9 11 -13 11 -16 -2 -16 -8
0 -17 3 -20 8 -2 4 -2 1 -1 -5 2 -7 -1 -13 -6 -13 -6 0 -10 -5 -10 -11 0 -5 5
-7 12 -3 7 4 22 8 34 9 17 0 20 -3 13 -12 -8 -8 -6 -19 6 -35 10 -13 15 -16
12 -8 -2 8 2 21 10 28 11 11 13 9 9 -13 -4 -20 -2 -25 10 -21 9 3 14 -1 14
-12 0 -13 2 -14 9 -3 5 8 11 9 15 3 9 -15 -23 -23 -44 -12 -24 13 -30 13 -30
0 0 -5 7 -10 15 -10 9 0 15 -9 15 -24 0 -14 6 -31 13 -38 8 -7 12 -19 9 -26
-2 -6 2 -12 10 -12 8 0 15 -12 16 -27 l2 -27 -30 29 c-23 22 -30 25 -30 12 0
-20 -16 -23 -23 -4 -2 6 -8 9 -12 4 -5 -4 2 -26 15 -50 30 -54 33 -58 58 -60
11 0 23 -10 26 -20 2 -10 9 -17 13 -14 15 10 34 -9 27 -26 -8 -23 -28 -22 -20
1 4 10 -2 7 -14 -8 l-20 -25 10 27 c8 25 7 28 -15 34 -14 3 -25 10 -25 15 0 5
-7 9 -15 9 -22 0 -18 -17 5 -23 17 -4 20 -12 19 -46 -2 -22 -7 -39 -13 -38 -5
1 -11 -6 -14 -15 -2 -13 2 -16 23 -12 15 3 34 -1 42 -8 13 -11 13 -13 -4 -19
-10 -3 -21 -2 -24 4 -4 5 -12 6 -19 2 -10 -6 -9 -10 3 -17 19 -10 12 -38 -9
-38 -21 0 -17 -17 5 -23 12 -3 18 0 15 7 -6 17 31 60 45 51 9 -5 7 -12 -8 -26
-28 -26 -26 -33 4 -25 17 4 31 1 40 -8 8 -8 20 -16 27 -18 9 -3 8 -9 -5 -22
-23 -23 -22 -31 4 -33 26 -2 37 -12 23 -21 -6 -4 -14 -14 -17 -22 -4 -12 -7
-10 -12 7 l-7 21 -34 -20 c-25 -15 -34 -17 -34 -6 0 8 -4 6 -11 -5 -8 -14 -14
-16 -25 -6 -16 13 -30 6 -20 -10 4 -5 20 -8 36 -6 22 3 34 -2 45 -18 9 -13 11
-23 5 -25 -15 -5 -12 -29 6 -36 8 -3 12 -2 9 3 -9 15 17 25 54 22 25 -2 33 1
29 11 -4 9 1 14 13 14 26 0 24 -10 -12 -45 -29 -29 -31 -30 -36 -11 -3 11 -10
20 -16 20 -6 0 -7 -3 -4 -7 4 -3 -5 -17 -19 -30 -14 -12 -21 -23 -17 -23 10 0
10 -38 -1 -62 -9 -19 -39 -29 -57 -18 -14 9 -46 -17 -34 -28 4 -4 10 -1 12 6
8 20 22 14 16 -8 -7 -26 14 -26 22 -1 3 11 13 18 23 16 9 -2 20 -4 25 -4 17
-2 5 -19 -18 -25 -17 -4 -23 -11 -18 -23 5 -12 3 -14 -7 -8 -10 6 -12 4 -7 -9
4 -10 7 -20 7 -22 0 -2 5 -4 10 -4 6 0 10 9 10 20 0 11 5 20 10 20 6 0 10 -5
10 -11 0 -6 9 -9 19 -6 17 4 18 2 8 -14 -6 -10 -21 -19 -32 -19 -15 0 -17 -2
-6 -9 8 -5 10 -14 6 -22 -6 -9 -3 -11 8 -6 10 3 17 2 17 -4 0 -6 5 -7 12 -3 8
5 9 2 5 -10 -4 -10 -7 -20 -7 -24 0 -3 -6 2 -13 13 -13 17 -14 17 -19 -3 -4
-13 0 -23 9 -26 8 -3 12 -10 8 -16 -4 -6 -13 -5 -26 3 -17 10 -22 9 -34 -6
-10 -14 -14 -15 -18 -5 -4 9 -6 8 -6 -4 -1 -10 10 -19 29 -23 17 -4 30 -11 30
-16 0 -6 -4 -7 -10 -4 -5 3 -10 -1 -10 -9 0 -8 5 -18 10 -21 6 -3 10 -14 10
-23 -1 -16 -1 -16 -11 0 -15 27 -36 12 -32 -25 11 -103 10 -135 -3 -130 -7 2
-10 12 -7 21 4 13 2 12 -10 -3 -14 -18 -13 -21 5 -33 11 -9 17 -20 13 -30 -3
-8 0 -19 7 -24 10 -6 10 -10 -2 -18 -13 -9 -13 -10 0 -10 9 0 16 -9 16 -20 0
-11 -6 -20 -13 -20 -19 0 -16 -21 4 -36 12 -9 14 -13 5 -14 -10 0 -10 -4 2
-16 9 -8 16 -21 16 -27 0 -8 -3 -7 -9 2 -6 10 -10 10 -16 1 -6 -9 -10 -9 -16
1 -6 10 -9 10 -9 2 0 -7 6 -18 13 -25 8 -7 12 -20 9 -30 -2 -11 1 -18 9 -18 9
-1 7 -6 -6 -16 -17 -13 -18 -16 -5 -24 11 -7 11 -10 2 -10 -7 0 -10 -5 -7 -10
4 -6 10 -8 15 -5 5 3 3 -12 -5 -34 -11 -32 -11 -42 -1 -50 7 -6 15 -9 17 -7 2
2 4 -6 4 -19 0 -13 -3 -21 -6 -19 -4 2 -12 -3 -19 -12 -11 -12 -11 -17 0 -27
10 -10 11 -9 5 2 -6 10 -4 12 4 6 9 -5 5 -16 -16 -38 -15 -17 -20 -25 -10 -17
18 13 18 12 14 -18 -3 -18 0 -35 5 -38 7 -5 8 -2 3 6 -5 8 -4 11 2 7 6 -4 13
-18 16 -32 3 -19 1 -25 -9 -21 -9 3 -14 -2 -14 -13 0 -11 5 -21 12 -23 8 -3 4
-12 -10 -26 -12 -12 -18 -22 -12 -22 5 0 7 -13 4 -30 -4 -16 -2 -30 3 -30 5 0
9 -33 9 -72 1 -40 4 -81 8 -90 6 -13 3 -15 -12 -11 -18 4 -20 0 -20 -42 0 -25
-6 -53 -13 -61 -9 -12 -9 -13 2 -9 18 6 49 -14 32 -22 -10 -3 -9 -12 4 -36 16
-32 15 -32 -4 -14 -25 22 -33 22 -33 -3 0 -12 7 -20 16 -20 11 0 14 -5 10 -16
-3 -9 -6 -20 -6 -25 0 -6 -6 -7 -12 -3 -7 4 -4 -3 7 -15 15 -18 17 -24 6 -31
-8 -5 -12 -17 -8 -30 8 -30 -12 -72 -32 -65 -11 4 -10 1 4 -15 16 -18 16 -20
2 -20 -10 0 -17 5 -17 12 0 6 -3 8 -7 5 -3 -4 4 -18 16 -31 16 -17 19 -26 11
-31 -7 -4 -10 -16 -7 -26 3 -11 1 -19 -4 -19 -5 0 -9 4 -9 9 0 5 -8 11 -18 13
-17 5 -17 2 -8 -18 6 -13 16 -22 23 -19 16 6 27 -12 12 -20 -5 -4 -8 -13 -5
-21 3 -8 1 -14 -4 -14 -6 0 -10 -6 -10 -14 0 -7 -9 -16 -21 -19 -14 -4 -18
-10 -13 -19 4 -7 3 -10 -1 -5 -5 4 -16 0 -25 -8 -14 -13 -15 -22 -7 -55 12
-42 3 -64 -14 -40 -9 12 -10 12 -5 -2 3 -10 9 -25 12 -32 4 -12 0 -14 -21 -10
-19 3 -26 1 -22 -8 2 -7 10 -12 16 -11 6 2 11 -2 11 -7 0 -6 -4 -10 -9 -10 -6
0 -16 -12 -23 -27 -10 -21 -20 -27 -37 -25 -20 3 -22 2 -10 -11 9 -9 18 -12
23 -6 12 11 26 12 26 1 0 -5 -15 -16 -32 -25 -22 -10 -27 -16 -15 -16 10 -1
15 -6 12 -11 -4 -6 -11 -8 -16 -5 -11 8 -44 -23 -35 -33 4 -3 11 0 16 8 7 12
12 12 21 3 19 -19 -8 -48 -29 -31 -13 10 -14 10 -8 1 4 -8 1 -13 -8 -13 -9 0
-16 -5 -16 -11 0 -6 7 -9 15 -6 8 4 17 2 20 -3 4 -6 -1 -10 -10 -10 -9 0 -14
-4 -11 -9 3 -4 -6 -6 -19 -3 -15 2 -25 0 -25 -7 0 -7 6 -11 12 -10 24 3 38 -1
38 -10 0 -5 -10 -7 -22 -3 -18 4 -20 2 -15 -17 6 -26 -20 -42 -33 -20 -10 15
-23 7 -26 -16 -1 -9 6 -15 19 -16 12 0 16 -3 10 -6 -7 -2 -13 -14 -13 -26 0
-36 -15 -50 -41 -42 -22 7 -22 7 -6 -9 23 -23 21 -36 -3 -36 -11 0 -20 -4 -20
-10 0 -5 4 -10 8 -10 5 0 9 -7 9 -15 0 -8 -9 -13 -21 -12 -15 1 -20 -3 -18
-16 4 -21 -16 -49 -29 -41 -15 9 -10 -13 6 -29 12 -12 12 -16 1 -20 -7 -3 -19
0 -25 6 -8 8 -11 8 -11 -1 0 -7 -9 -12 -21 -12 -18 0 -20 -4 -15 -25 4 -14 2
-25 -3 -25 -5 0 -9 -16 -8 -35 1 -19 5 -35 9 -35 4 0 8 -5 8 -11 0 -5 -4 -7
-10 -4 -7 4 -10 -873 -10 -2624 l0 -2631 5120 0 5120 0 0 526 c0 367 -3 532
-11 546 -6 12 -15 94 -19 183 -7 157 -19 210 -43 202 -22 -7 -28 -67 -27 -312
0 -144 -4 -245 -9 -240 -10 11 -71 176 -71 192 0 15 -52 93 -62 93 -4 0 -9 -8
-10 -17 -4 -47 -5 -60 -7 -90 -1 -22 -5 -31 -14 -27 -18 6 -50 81 -44 99 3 7
-4 20 -16 28 -13 8 -23 23 -24 33 -1 11 -5 42 -9 69 -5 46 -3 56 37 125 23 41
54 87 67 102 14 16 22 28 18 28 -5 0 -4 6 2 13 13 16 4 74 -13 81 -17 6 -51
-39 -94 -123 -19 -36 -39 -71 -47 -78 -7 -7 -15 -22 -19 -33 -8 -24 -45 -37
-56 -19 -5 8 -16 39 -24 69 -41 144 -48 153 -130 170 -24 5 -38 19 -66 69 -21
34 -39 59 -42 54 -3 -4 1 -44 9 -88 13 -72 13 -84 -2 -117 -17 -38 -34 -50
-34 -25 0 7 -18 38 -40 67 -47 62 -50 91 -15 142 28 42 31 66 11 82 -13 10
-13 18 0 66 7 30 14 69 14 86 0 27 -4 33 -27 37 -38 7 -40 4 -59 -60 -12 -40
-13 -58 -5 -66 6 -6 11 -27 11 -46 0 -33 0 -34 -20 -16 -11 10 -20 13 -20 7 0
-7 -5 -12 -11 -12 -7 0 -9 10 -5 25 6 25 -8 36 -17 12 -3 -8 -7 -6 -12 6 -4
11 -3 23 4 30 8 8 11 8 11 -1 0 -7 4 -12 10 -12 5 0 7 7 4 15 -13 33 44 135
76 135 6 0 8 4 5 10 -3 5 3 20 14 32 15 16 21 35 21 70 0 54 25 92 56 86 22
-4 46 39 38 67 -9 29 -10 29 -40 6 -35 -28 -62 -27 -74 3 -11 30 -43 25 -68
-11 -31 -46 -67 -78 -104 -95 -20 -9 -44 -29 -55 -44 -10 -15 -34 -44 -53 -65
-34 -36 -36 -37 -48 -19 -16 26 -15 75 3 125 8 22 15 50 15 61 0 38 27 88 90
164 33 41 75 100 92 130 17 30 37 62 45 70 86 98 113 137 111 155 -3 22 -7 22
-90 1 -50 -12 -58 -12 -58 0 0 8 -4 14 -9 14 -5 0 -7 26 -5 58 6 69 -1 81 -43
75 -28 -5 -33 -10 -43 -53 -10 -40 -33 -70 -46 -58 -1 2 -12 38 -23 81 -12 43
-27 87 -34 98 -11 17 -62 39 -94 39 -18 0 -30 29 -35 87 -5 50 -3 54 26 77 31
23 54 26 203 27 30 0 39 9 93 86 74 106 77 127 18 104 -13 -5 -43 -14 -68 -21
-81 -22 -104 -33 -165 -81 -33 -25 -74 -53 -91 -62 -30 -15 -31 -15 -66 18
-44 39 -52 74 -40 170 7 53 5 85 -6 130 -18 76 -17 142 4 236 23 103 34 198
28 239 -10 68 -15 80 -46 116 -28 31 -31 42 -30 90 l1 55 -57 -6 c-52 -6 -59
-5 -80 18 -18 19 -25 41 -29 86 -6 61 -30 99 -66 105 -8 1 -22 8 -30 14 -19
16 -26 6 -35 -50 -6 -34 -12 -44 -30 -46 -12 -2 -20 -7 -17 -12 7 -12 -17 -50
-31 -50 -6 0 -21 9 -33 19 -13 11 -36 23 -51 26 -33 7 -38 19 -41 90 -2 49 9
83 38 117 11 13 21 15 39 8 30 -12 34 12 6 32 -10 7 -26 40 -37 73 -10 33 -24
67 -31 75 -16 21 -37 88 -30 99 3 5 26 12 52 16 54 8 70 -2 84 -56 13 -47 39
-52 69 -13 51 65 -6 188 -84 181 -17 -2 -21 8 -30 75 -7 50 -22 98 -44 141
-29 57 -32 71 -25 103 11 46 36 64 64 46 29 -18 50 -15 59 11 12 31 -3 43 -34
29 -15 -7 -37 -9 -51 -6 -14 4 -24 2 -24 -5 0 -6 -15 -11 -33 -11 -39 0 -95
-42 -64 -48 10 -2 17 -13 17 -24 l0 -21 -23 21 c-27 26 -42 28 -33 6 3 -9 2
-33 -4 -54 -9 -33 -13 -37 -35 -32 -22 4 -25 1 -25 -22 0 -15 4 -25 8 -22 4 2
8 -3 9 -12 1 -9 5 -36 8 -58 6 -37 3 -48 -24 -87 -17 -25 -31 -50 -31 -55 0
-21 -33 -22 -47 -2 -11 16 -18 18 -34 10 -10 -6 -19 -7 -20 -3 -1 4 -4 -2 -7
-15 -4 -13 -11 -22 -16 -20 -8 3 -28 -35 -30 -57 -1 -5 -6 -10 -13 -10 -20 0
-26 -14 -13 -30 7 -9 8 -15 2 -15 -6 0 -12 6 -15 13 -3 9 -10 7 -25 -7 -12
-10 -20 -22 -17 -26 2 -3 -2 -33 -10 -65 -7 -33 -11 -63 -8 -68 3 -4 -3 -17
-13 -28 -14 -16 -15 -22 -5 -28 22 -14 -18 -73 -57 -85 -12 -4 -23 -12 -23
-17 -1 -5 -3 -13 -4 -19 -1 -5 -3 -13 -4 -17 0 -4 -16 8 -33 26 -33 34 -33 34
-33 135 1 130 13 257 27 274 6 7 8 15 5 18 -3 3 1 27 9 52 18 61 18 113 -1
138 -8 10 -15 25 -15 32 0 7 -7 29 -16 50 -26 60 -24 80 12 97 41 19 43 19 99
-5 l47 -20 38 40 c23 24 48 40 62 40 24 1 47 27 115 130 20 30 49 68 65 84 15
17 28 33 28 38 0 4 18 15 39 24 33 13 43 25 69 82 20 44 51 89 91 131 34 34
61 66 61 70 0 3 -11 23 -26 44 l-25 37 -62 -6 c-49 -5 -67 -11 -87 -32 -14
-15 -34 -32 -45 -38 -10 -6 -23 -24 -28 -40 -14 -43 -36 -64 -68 -64 -16 0
-47 -15 -75 -36 -52 -40 -69 -34 -59 21 9 50 74 212 98 241 46 59 130 228 125
253 -2 9 -12 17 -23 19 -11 2 -37 21 -57 43 l-37 39 -40 -15 c-22 -7 -50 -19
-62 -25 -29 -16 -128 -29 -135 -18 -3 4 -16 8 -29 8 -25 0 -35 -11 -85 -93
-26 -41 -33 -47 -55 -41 -20 5 -25 3 -25 -14 0 -11 -14 -34 -30 -52 -23 -25
-36 -31 -54 -26 -21 5 -24 2 -30 -33 -3 -21 -19 -55 -36 -76 -16 -21 -30 -44
-30 -51 0 -7 -36 -49 -80 -93 -80 -80 -90 -97 -69 -118 12 -12 94 1 115 18 10
8 19 4 39 -17 14 -15 25 -35 25 -45 0 -23 19 -67 42 -98 11 -14 18 -42 18 -70
1 -41 4 -48 33 -66 18 -11 33 -31 35 -43 2 -13 10 -26 17 -28 8 -3 11 -12 8
-19 -2 -8 -1 -20 3 -27 5 -7 9 -20 11 -28 1 -8 6 -16 10 -17 9 -3 6 -119 -4
-143 -8 -22 -8 -54 1 -68 4 -6 3 -12 -2 -12 -5 0 -12 -13 -15 -28 -6 -27 -9
-29 -57 -28 -36 1 -49 4 -45 13 3 9 -8 13 -36 13 -30 0 -50 -7 -73 -26 -17
-15 -31 -30 -31 -34 0 -4 -16 -26 -35 -50 -19 -23 -38 -47 -42 -53 -4 -6 -10
-8 -14 -5 -6 7 -16 1 -64 -44 -33 -30 -65 -28 -76 4 -8 27 -151 168 -170 168
-7 0 -14 4 -14 10 0 5 -22 12 -50 16 -27 4 -50 10 -50 15 0 5 -7 9 -15 9 -9 0
-26 7 -38 15 -13 8 -41 16 -63 18 -40 3 -41 2 -35 -24 8 -40 149 -199 175
-199 5 0 36 -17 68 -37 42 -28 58 -44 58 -60 0 -13 4 -23 9 -23 13 0 10 -49
-4 -76 -14 -28 2 -94 23 -94 8 0 11 -10 7 -29 -4 -22 0 -33 12 -40 16 -9 16
-10 2 -11 -9 0 -19 -6 -22 -13 -4 -10 2 -13 19 -9 15 3 24 0 24 -8 0 -7 -7
-10 -15 -6 -10 4 -15 -1 -15 -15 0 -15 5 -19 15 -15 8 3 15 1 15 -3 0 -5 -7
-12 -16 -15 -22 -8 -26 -8 -19 3 3 5 1 12 -5 16 -6 4 -8 11 -5 16 4 5 1 9 -4
9 -6 0 -11 -7 -11 -16 0 -11 -6 -15 -20 -11 -11 3 -23 1 -26 -4 -3 -5 -16 -9
-30 -9 -13 0 -24 -6 -24 -13 0 -7 -9 -18 -20 -25 -11 -7 -20 -19 -20 -26 0
-17 43 -49 85 -63 37 -13 59 6 61 51 3 49 4 52 12 40 8 -12 41 -27 62 -29 8 0
14 -6 12 -13 -2 -13 0 -14 41 -16 15 -1 27 2 27 6 0 4 5 8 11 8 5 0 8 -3 6 -7
-3 -5 26 -8 64 -7 38 0 69 -3 69 -8 0 -5 3 -7 8 -4 24 15 83 -89 87 -155 2
-24 6 -52 10 -61 4 -10 4 -26 -1 -35 -4 -10 -7 -30 -6 -46 0 -15 -4 -27 -9
-27 -5 0 -9 -16 -9 -35 0 -19 -4 -35 -9 -35 -5 0 -7 9 -4 19 4 16 0 19 -19 17
-13 -1 -29 -6 -36 -10 -7 -4 -21 -4 -32 -1 -16 5 -20 2 -20 -18 0 -34 92 -213
132 -259 93 -105 117 -312 57 -485 -11 -32 -23 -68 -26 -80 -6 -26 -34 -30
-57 -8 -8 8 -20 15 -26 15 -17 0 -100 86 -92 95 7 6 -25 35 -39 35 -3 0 -4
-10 -2 -23 5 -26 -32 -97 -51 -97 -40 0 -62 73 -48 155 6 33 12 40 30 39 42
-1 24 30 -75 129 -63 64 -84 82 -107 90 -14 5 -17 3 -12 -8 3 -10 -1 -15 -12
-15 -13 0 -12 -4 8 -20 14 -11 31 -20 38 -20 6 0 12 -7 12 -15 0 -8 11 -17 24
-21 13 -3 29 -16 36 -30 8 -13 16 -24 20 -24 7 0 5 -25 -6 -77 -8 -40 -47 -20
-60 31 -14 59 -61 9 -83 -90 -9 -39 -19 -58 -31 -61 -14 -4 -19 -20 -25 -94
-3 -49 -10 -89 -14 -89 -15 0 -48 -35 -62 -65 -8 -16 -13 -47 -11 -68 3 -34 5
-37 28 -31 19 5 26 1 33 -17 9 -25 -3 -74 -21 -85 -5 -3 -17 1 -26 9 -15 14
-19 14 -39 -3 -13 -10 -23 -23 -23 -29 0 -21 -18 -11 -24 14 -6 24 -26 36 -26
15 0 -15 -39 -12 -93 7 -39 14 -50 15 -56 4 -10 -16 5 -105 26 -150 24 -53 -2
-155 -28 -108 -6 9 -16 17 -23 17 -8 0 -16 7 -20 15 -3 8 -12 12 -20 9 -11 -4
-13 0 -9 15 3 12 1 21 -6 21 -6 0 -11 5 -11 11 0 5 4 8 9 4 5 -3 12 -1 16 5 3
5 1 10 -5 10 -6 0 -10 6 -8 14 3 16 3 16 -44 16 -17 0 -28 -3 -25 -6 4 -4 -2
-19 -13 -34 -11 -16 -20 -34 -20 -42 0 -31 32 -101 69 -149 24 -32 42 -69 46
-93 4 -23 13 -63 22 -90 17 -55 8 -107 -29 -156 -19 -26 -19 -29 -4 -58 9 -17
16 -38 16 -47 0 -8 5 -15 10 -15 11 0 13 -30 4 -54 -3 -9 -13 -16 -21 -16 -8
0 -12 4 -8 9 6 11 -56 33 -92 33 -14 0 -27 8 -31 17 -3 9 -8 18 -12 21 -10 8
-60 113 -60 127 0 7 -5 13 -10 13 -6 0 -9 6 -8 12 2 7 -4 13 -12 13 -9 0 -17
-15 -22 -40 -13 -65 -27 -86 -55 -79 -18 5 -31 -2 -58 -30 -46 -49 -74 -59
-102 -36 -35 28 -39 64 -10 91 14 14 32 50 42 84 9 33 18 68 21 78 7 24 -7 21
-57 -13 -44 -30 -79 -39 -79 -20 0 6 -11 10 -25 10 -17 0 -23 4 -19 14 11 30
-32 51 -96 48 -65 -4 -81 8 -61 46 8 15 8 21 -2 25 -9 3 -9 7 -1 18 16 19 14
77 -3 83 -7 3 -13 15 -13 26 0 11 -5 20 -11 20 -6 0 -9 9 -6 20 3 12 0 20 -7
20 -11 0 -49 91 -61 145 -17 72 -30 206 -43 416 -5 76 -4 105 4 102 8 -3 10
22 9 79 -1 48 2 89 8 96 14 18 16 65 2 74 -6 5 -6 8 2 8 8 0 9 9 3 31 -6 20
-5 39 2 55 9 18 9 30 1 42 -13 22 1 62 22 62 8 0 15 5 15 11 0 6 -6 9 -14 6
-8 -3 -17 1 -20 9 -9 23 -7 31 10 48 8 9 11 16 5 16 -15 0 -14 27 2 33 6 3 7
6 2 6 -7 1 -9 16 -7 38 4 27 0 40 -14 50 -11 8 -15 17 -9 21 17 12 18 26 16
132 -1 25 1 86 5 135 6 93 6 130 0 203 -2 23 0 42 5 42 5 0 6 6 3 13 -9 25
-10 152 -1 164 6 9 6 13 -1 13 -6 0 -9 7 -6 15 3 8 0 31 -7 52 -8 25 -8 38 -2
40 13 5 4 43 -9 43 -7 0 -7 5 0 13 6 7 7 18 2 26 -8 14 -5 126 5 141 3 5 1 10
-4 12 -14 5 -36 328 -22 328 4 0 5 20 1 45 -4 24 -4 49 0 56 4 6 8 45 9 88 1
42 4 92 5 111 2 19 6 109 10 200 5 91 12 166 16 168 5 2 5 16 0 32 -5 18 -5
32 1 36 6 3 8 12 5 20 -3 7 -1 16 3 18 5 3 16 47 26 98 10 51 24 102 32 113 7
11 13 26 13 34 0 19 49 118 65 131 8 6 11 18 8 26 -3 8 5 22 18 32 12 11 24
29 26 42 2 13 7 27 11 30 15 11 32 51 27 60 -4 6 -1 10 4 10 6 0 11 7 11 15 0
9 7 27 16 40 9 13 13 28 10 33 -3 6 5 17 19 26 14 9 29 34 36 58 7 24 17 49
23 57 16 20 35 54 42 74 3 9 10 17 15 17 5 0 9 6 9 14 0 8 7 16 15 20 8 3 15
10 15 17 0 6 9 22 20 36 11 14 20 37 20 52 0 14 11 39 25 55 13 16 22 32 19
37 -2 4 0 16 5 26 6 10 17 44 25 76 13 53 13 58 -1 53 -13 -6 -14 -4 -3 9 8 9
22 14 32 12 11 -3 18 0 18 9 0 18 -18 18 -54 -1 -15 -8 -32 -12 -38 -9 -5 3
-12 -3 -14 -13 -3 -11 -17 -24 -32 -31 -15 -6 -46 -22 -70 -36 -23 -15 -44
-26 -47 -26 -9 0 -60 53 -58 61 2 4 -3 6 -10 4 -16 -6 -44 12 -34 22 5 4 12 1
17 -7 8 -13 10 -12 10 2 0 23 -12 28 -45 19 -17 -4 -24 -10 -18 -14 6 -4 9
-16 6 -27 -3 -11 0 -26 6 -34 13 -15 -1 -32 -18 -22 -4 3 -16 -1 -26 -8 -13
-9 -16 -19 -10 -32 19 -44 16 -54 -15 -54 -36 0 -38 7 -7 20 l22 9 -22 0 c-14
1 -23 7 -23 16 0 8 -4 15 -10 15 -13 0 -13 -13 0 -26 8 -8 6 -15 -5 -24 -13
-10 -15 -9 -15 8 0 11 -3 27 -6 36 -4 10 -1 16 10 16 10 0 13 6 10 15 -4 8
-12 15 -20 15 -9 0 -14 11 -14 31 0 21 -6 32 -18 36 -22 5 -24 50 -2 63 13 8
12 11 -5 24 -17 13 -18 15 -3 16 25 0 32 19 14 39 -9 10 -16 22 -16 28 0 6 -7
14 -16 17 -10 4 -14 14 -11 26 3 11 -1 42 -7 68 -8 28 -10 57 -5 70 5 12 4 24
-2 27 -5 4 -8 18 -7 33 1 15 -4 44 -11 64 -7 21 -9 42 -6 48 4 6 -3 29 -14 51
-12 22 -21 46 -21 54 0 8 -4 15 -10 15 -5 0 -10 11 -10 23 0 13 -9 32 -20 42
-11 10 -20 26 -20 37 0 10 -4 18 -10 18 -5 0 -10 11 -10 24 0 15 -7 27 -17 30
-10 3 -27 19 -38 35 -10 16 -23 27 -28 24 -4 -3 -11 4 -14 16 -6 24 -68 66
-82 56 -6 -3 -16 3 -23 14 -9 15 -15 17 -25 9 -10 -8 -13 -6 -13 5 0 11 -5 14
-17 10 -12 -5 -15 -2 -10 9 8 22 -33 32 -48 12 -6 -8 -24 -17 -40 -18 -16 -2
-34 -11 -40 -20 -7 -9 -18 -16 -25 -16 -7 0 -10 -6 -7 -14 3 -8 -5 -22 -19
-32 -13 -11 -24 -24 -24 -32 0 -7 -5 -20 -10 -30 -9 -15 -38 -90 -70 -182 -7
-19 -17 -43 -21 -52 -5 -10 -9 -27 -9 -38 0 -11 -4 -20 -8 -20 -8 0 -9 -10
-12 -72 -2 -36 36 -164 51 -174 5 -3 9 -14 9 -25 0 -10 5 -19 10 -19 6 0 10
-7 10 -15 0 -8 5 -15 10 -15 6 0 10 -7 10 -15 0 -8 4 -15 9 -15 5 0 23 -29 41
-65 18 -36 36 -65 40 -65 5 0 6 -9 3 -20 -3 -11 1 -27 8 -36 7 -9 14 -23 15
-32 1 -10 8 -37 15 -61 9 -33 9 -48 0 -62 -6 -11 -7 -19 -2 -19 11 0 7 -114
-4 -143 -4 -9 -5 -27 -2 -39 3 -12 1 -43 -4 -70 -9 -39 -15 -48 -32 -49 -18
-1 -19 -2 -4 -6 18 -5 18 -6 1 -24 -23 -25 -47 -25 -39 0 6 20 -9 38 -19 22
-4 -5 -7 -30 -8 -54 -2 -45 -2 -45 -20 -24 l-18 21 3 -23 c2 -12 9 -26 17 -31
10 -6 8 -9 -6 -13 -17 -4 -17 -6 4 -12 41 -14 23 -26 -32 -21 -50 5 -54 4 -49
-14 5 -18 -5 -25 -29 -21 -5 0 -8 -4 -8 -9 0 -6 -5 -10 -10 -10 -6 0 -10 6 -9
13 4 23 -20 62 -50 82 -19 12 -29 26 -26 35 4 8 -4 22 -17 33 l-23 18 22 -6
c21 -6 22 -4 12 24 -6 17 -14 31 -18 31 -4 0 -6 20 -4 45 3 34 0 45 -11 45 -9
0 -12 7 -9 20 4 14 0 20 -11 20 -10 0 -15 4 -11 9 3 6 -3 14 -12 20 -16 9 -16
12 -3 21 12 7 12 10 1 10 -7 0 -11 6 -8 15 4 8 2 17 -3 20 -6 4 -10 17 -10 31
0 14 -4 22 -10 19 -18 -11 -12 -55 8 -55 14 0 15 -2 2 -10 -20 -13 -30 -12
-30 2 0 11 -10 23 -57 72 -16 17 -21 32 -18 55 2 17 0 29 -4 26 -5 -2 -16 4
-26 15 -23 25 -36 25 -67 1 -16 -13 -34 -18 -49 -15 -17 4 -20 3 -10 -4 17
-12 4 -35 -15 -28 -9 3 -14 -1 -14 -12 0 -14 -2 -15 -10 -2 -7 12 -10 11 -15
-5 -4 -11 -11 -28 -16 -37 -13 -26 -11 -48 6 -54 8 -4 15 -11 15 -16 0 -6 -6
-8 -14 -5 -11 4 -11 1 -2 -19 6 -13 17 -24 24 -24 6 0 12 -7 12 -15 0 -8 5
-14 11 -12 6 1 13 -5 14 -13 7 -38 11 -45 30 -51 11 -3 19 -12 17 -19 -2 -8 8
-25 22 -39 44 -44 73 -85 89 -124 9 -20 21 -37 26 -37 6 0 8 -7 5 -15 -4 -10
0 -15 10 -15 10 0 22 -13 27 -30 6 -16 17 -30 25 -30 8 0 14 -7 14 -16 0 -10
7 -14 23 -12 16 2 22 -2 22 -15 0 -10 8 -25 18 -32 14 -10 15 -14 5 -18 -8 -4
-7 -6 5 -6 9 -1 17 -8 17 -16 0 -10 6 -12 18 -8 15 6 15 5 3 -10 -12 -15 -11
-17 8 -17 11 0 21 -5 21 -10 0 -6 12 -15 26 -20 18 -7 24 -15 20 -26 -4 -10
-2 -13 6 -8 7 5 9 2 5 -9 -3 -9 0 -18 9 -21 8 -3 14 -1 14 4 0 19 28 -2 34
-26 4 -14 11 -22 16 -19 6 3 19 -10 31 -29 12 -20 27 -36 34 -36 7 0 18 -7 25
-15 11 -13 15 -13 21 -3 6 10 11 10 20 1 9 -9 9 -16 -1 -28 -11 -13 -10 -14 5
-8 15 5 17 3 12 -10 -4 -11 3 -27 18 -45 44 -49 76 -104 77 -133 1 -16 5 -29
9 -29 12 0 22 -39 26 -95 4 -66 7 -88 17 -103 4 -7 4 -56 0 -110 -3 -53 -6
-108 -4 -122 3 -40 3 -44 -5 -62 -4 -10 -3 -18 2 -18 4 0 7 -17 6 -37 -1 -21
-3 -74 -5 -118 -1 -44 -7 -83 -13 -87 -6 -5 -5 -8 3 -8 10 0 12 -8 6 -32 -4
-18 -7 -42 -6 -53 1 -10 -3 -24 -8 -30 -5 -7 -8 -35 -6 -64 2 -28 0 -54 -5
-56 -8 -5 -4 -111 7 -175 3 -19 13 -43 21 -52 15 -17 15 -18 -3 -18 -18 -1
-18 -1 -1 -11 9 -5 17 -19 17 -29 0 -10 8 -24 18 -30 16 -11 16 -11 0 -6 -10
3 -18 2 -18 -3 0 -5 8 -19 18 -32 34 -47 45 -73 34 -77 -7 -2 -8 -9 -2 -20 22
-42 40 -116 29 -123 -6 -3 -11 -30 -11 -60 1 -29 -2 -57 -6 -63 -10 -17 -11
-85 -1 -92 5 -3 6 -11 2 -17 -4 -7 -8 -14 -9 -17 0 -3 -5 -16 -11 -30 -6 -14
-9 -36 -8 -50 2 -14 -4 -35 -11 -47 -9 -14 -10 -24 -4 -28 14 -9 12 -21 -6
-39 -8 -9 -12 -16 -8 -16 3 0 1 -7 -6 -15 -8 -9 -21 -13 -32 -9 -12 4 -18 1
-16 -8 2 -7 -3 -12 -9 -10 -7 1 -13 -4 -13 -11 0 -16 -49 -21 -66 -6 -8 6 -14
8 -14 3 0 -5 -7 0 -15 10 -8 11 -18 17 -21 13 -4 -3 -18 3 -32 13 -27 21 -52
26 -52 10 0 -5 -5 -10 -11 -10 -6 0 -8 7 -5 17 4 9 1 20 -6 25 -18 11 -30 10
-23 -2 3 -5 -3 -10 -14 -10 -24 0 -27 10 -9 28 9 9 9 12 0 12 -7 0 -12 6 -12
14 0 8 -6 17 -12 19 -10 4 -10 6 0 6 6 1 12 6 12 12 0 6 -7 8 -15 5 -9 -3 -18
1 -22 10 -3 9 -12 13 -21 9 -8 -3 -23 2 -32 10 -21 19 -87 28 -96 13 -4 -6 0
-14 7 -19 12 -7 11 -9 -1 -9 -13 0 -13 -1 0 -10 13 -9 13 -10 0 -10 -13 -1
-13 -2 0 -13 23 -19 23 -38 0 -44 -13 -3 -19 -11 -16 -19 3 -8 1 -14 -4 -14
-6 0 -10 5 -10 11 0 8 -4 8 -13 1 -22 -18 -60 -6 -88 28 -26 30 -31 58 -8 45
5 -4 9 -1 9 4 0 6 -6 11 -14 11 -18 0 -18 46 0 61 17 14 18 36 2 41 -9 3 -7
14 6 39 15 31 53 88 74 114 46 57 34 106 -21 86 -27 -10 -45 -5 -74 22 -14 12
-23 16 -23 8 0 -7 -5 -9 -11 -6 -5 4 -19 -1 -30 -11 -10 -9 -19 -14 -19 -9 0
4 -12 0 -26 -10 -16 -10 -35 -14 -50 -11 -14 4 -24 2 -24 -4 0 -5 -8 -10 -17
-10 -16 0 -16 2 -3 11 11 8 12 12 3 16 -7 2 -13 11 -13 19 0 20 -77 54 -113
50 -25 -3 -27 -1 -25 29 1 18 -3 39 -9 47 -6 7 -10 31 -8 53 2 26 -4 52 -16
73 -12 22 -17 42 -13 59 6 24 5 24 -16 13 -16 -8 -25 -9 -33 -1 -14 14 -48
-15 -40 -35 3 -8 0 -14 -6 -14 -6 0 -10 -4 -8 -9 2 -9 -15 -32 -98 -127 -21
-25 -35 -33 -48 -29 -9 4 -17 13 -17 20 0 6 -11 33 -25 59 -14 26 -25 54 -25
62 0 23 -24 16 -56 -15 -31 -31 -99 -158 -110 -208 -12 -55 -15 -63 -28 -63
-15 0 -32 35 -42 85 -8 47 -68 106 -148 145 -69 35 -83 37 -91 11 -7 -24 3
-50 33 -81 41 -44 90 -124 103 -170 7 -25 21 -55 30 -68 35 -45 37 -182 4
-182 -8 0 -14 3 -13 8 3 11 -23 55 -41 69 -9 7 -29 13 -44 13 -15 0 -40 9 -55
20 -15 11 -38 21 -52 24 -14 2 -24 9 -23 15 2 6 -6 11 -17 11 -11 0 -20 7 -20
15 0 8 4 15 8 15 4 0 8 16 9 35 1 34 -18 48 -32 24 -4 -6 -12 -8 -19 -6 -18 7
-49 -20 -53 -45 -2 -12 -5 -23 -7 -25 -2 -3 12 -21 30 -41 19 -20 42 -51 50
-69 9 -18 27 -44 40 -58 13 -14 24 -28 24 -30 0 -5 18 -27 58 -73 36 -41 112
-159 112 -174 0 -7 7 -26 15 -42 59 -113 37 -329 -38 -374 -24 -15 -29 -15
-37 -2 -5 8 -8 21 -5 29 12 30 16 231 6 231 -6 0 -11 8 -11 18 0 11 -9 27 -20
37 -14 12 -17 21 -9 25 6 5 2 9 -10 13 -13 3 -28 -1 -38 -11 -8 -9 -25 -18
-36 -19 -12 -2 -24 -8 -27 -12 -3 -5 -18 -13 -33 -16 -15 -4 -29 -10 -32 -14
-7 -13 -138 -2 -154 13 -23 19 -51 27 -51 14 0 -7 -5 -6 -15 2 -8 6 -45 14
-82 16 -37 2 -74 6 -80 9 -7 2 -13 0 -13 -5 0 -5 -7 -7 -15 -3 -11 4 -19 -4
-28 -26 -6 -17 -15 -31 -19 -31 -4 0 -8 -7 -8 -15 0 -8 -4 -15 -9 -15 -25 0
-69 -207 -67 -312 1 -32 -1 -58 -5 -58 -4 0 -6 -8 -5 -17 1 -13 -7 -18 -26
-18 -21 -1 -30 6 -39 26 -6 15 -18 30 -26 33 -9 4 -13 13 -9 21 3 9 -1 18 -9
22 -11 3 -12 9 -6 17 6 7 6 17 1 26 -7 10 -10 11 -10 3 0 -7 -6 -13 -14 -13
-17 0 -26 -22 -26 -61 0 -16 -4 -29 -10 -29 -5 0 -10 6 -10 13 0 8 -3 7 -10
-3 -7 -11 -11 -9 -19 12 -5 14 -15 29 -21 33 -5 3 -8 10 -6 14 3 4 -4 18 -15
30 -11 12 -17 26 -14 31 4 6 -7 10 -24 10 -29 0 -30 -1 -25 -43 16 -136 10
-202 -27 -305 -10 -28 -19 -54 -19 -57 0 -3 0 -9 0 -15 0 -5 -7 -10 -15 -10
-21 0 -19 -13 5 -28 12 -7 19 -16 17 -20 -2 -4 4 -15 15 -24 10 -10 18 -15 19
-10 0 4 4 -2 8 -13 5 -11 6 -35 4 -53 -4 -24 -10 -32 -25 -32 -18 0 -19 -2 -7
-17 7 -10 9 -15 5 -11 -5 4 -15 3 -23 -3 -10 -9 -13 -8 -13 5 0 9 -4 16 -10
16 -5 0 -10 7 -10 16 0 22 -87 105 -104 98 -7 -3 -26 6 -41 20 -15 14 -35 26
-44 26 -18 1 -61 29 -45 31 5 0 -4 5 -21 10 -33 10 -43 4 -48 -28 -2 -13 -6
-26 -10 -29 -4 -4 -7 -15 -7 -23 0 -16 -19 -31 -77 -62 -32 -16 -33 -16 -49 9
-21 32 -25 118 -9 189 7 31 8 57 3 67 -5 9 -5 16 -1 16 4 0 9 21 10 48 2 51
10 124 13 132 1 3 2 9 1 14 -1 5 4 13 11 17 9 6 9 9 1 9 -8 0 -9 10 -1 36 5
20 7 45 5 55 -3 11 0 19 6 19 7 0 13 19 15 42 1 23 7 45 13 48 5 4 7 14 3 23
-3 9 1 31 10 48 9 18 16 42 16 55 0 12 5 24 11 26 6 2 12 17 13 33 1 17 4 35
8 40 3 6 9 30 13 54 4 25 14 51 22 59 12 12 12 16 1 24 -10 7 -9 12 7 24 11 8
21 19 21 24 1 6 3 13 4 18 2 4 4 12 5 17 4 25 17 55 25 55 4 0 6 8 3 18 -2 10
6 27 21 41 14 14 26 33 26 43 0 10 5 18 10 18 6 0 10 6 10 13 0 7 9 23 21 36
12 12 19 30 16 41 -3 12 3 22 19 30 13 7 21 17 18 22 -3 4 2 8 10 8 9 0 16 9
16 20 0 11 7 20 15 20 18 0 20 16 3 23 -8 3 -6 6 5 6 9 1 17 6 17 11 0 6 9 10
20 10 22 0 27 15 8 23 -7 3 -1 6 15 6 15 1 27 5 27 9 0 10 19 13 78 12 31 -1
42 3 42 15 0 8 3 15 8 15 14 0 31 55 28 95 -1 22 2 46 7 53 7 9 5 11 -8 6 -12
-5 -16 -4 -11 4 4 6 -11 28 -34 49 -22 21 -40 44 -40 51 0 6 -4 12 -9 12 -17
0 -30 137 -17 190 3 14 9 40 12 58 3 17 10 32 14 32 5 0 9 8 9 18 1 41 5 52
18 52 8 0 11 4 8 10 -3 5 37 51 90 103 52 51 95 98 95 105 0 7 4 12 9 12 21 0
60 81 66 135 5 40 3 55 -4 50 -6 -3 -11 -1 -11 4 0 6 -7 11 -15 11 -8 0 -15
-5 -15 -11 0 -6 -7 -9 -15 -5 -8 3 -21 -2 -30 -10 -8 -9 -15 -11 -15 -6 0 11
-38 5 -55 -8 -9 -7 -46 -18 -119 -35 -23 -5 -27 -8 -15 -16 11 -7 10 -9 -6
-10 -11 -1 -23 -1 -27 0 -5 0 -7 -2 -6 -7 4 -11 -62 -72 -78 -72 -12 0 -16
-12 -13 -36 0 -4 -3 -10 -8 -13 -5 -3 -26 -35 -47 -69 -30 -49 -43 -63 -57
-59 -12 3 -19 0 -19 -9 0 -18 -8 -18 -28 2 -13 14 -14 21 -4 48 8 20 9 32 2
34 -5 2 -10 10 -10 18 0 9 4 13 9 10 5 -3 12 13 15 37 10 59 12 70 19 87 13
30 14 95 3 109 -8 11 -8 13 2 7 7 -4 12 -1 12 9 0 10 -5 13 -11 9 -9 -5 -10 1
-5 21 5 19 3 31 -6 37 -11 6 -11 10 0 17 9 5 11 19 7 42 -3 19 -7 48 -9 64 -1
17 -8 41 -16 55 -12 23 -12 24 3 11 20 -16 20 -16 8 27 -6 18 -6 30 -1 27 16
-10 21 15 6 31 -21 20 -21 41 -1 24 20 -16 19 0 -1 28 -13 20 -14 24 -1 37 9
8 13 24 10 36 -5 18 -3 20 18 15 22 -6 23 -6 7 7 -19 15 -25 32 -8 22 7 -4 10
12 9 43 -2 44 1 53 27 76 29 25 29 25 4 19 -25 -7 -25 -6 -7 20 9 14 17 33 17
41 0 8 8 20 18 25 10 6 12 11 4 11 -9 0 -10 5 -3 19 6 10 8 21 4 24 -11 11 7
57 23 57 8 0 12 5 9 10 -4 6 -11 7 -17 4 -7 -5 -8 -2 -2 7 5 8 7 22 6 32 -2
10 3 17 13 17 9 0 14 4 10 9 -3 5 -1 12 5 16 16 10 12 25 -5 19 -22 -9 -18 7
9 41 22 27 22 31 7 43 -9 7 -10 11 -3 7 17 -9 28 25 11 35 -10 7 -7 13 12 29
13 11 19 20 12 21 -15 0 -4 42 14 53 7 4 13 15 13 22 0 8 6 15 14 15 9 0 12 7
9 20 -7 25 -12 25 -30 3 -13 -16 -14 -15 -8 11 3 17 13 35 21 41 16 11 20 38
9 71 -4 14 0 27 12 39 15 16 15 18 2 13 -13 -5 -16 -1 -15 17 1 17 4 21 14 13
9 -8 12 -6 12 5 0 8 -6 18 -12 20 -10 4 -10 8 2 16 8 5 17 8 22 5 4 -3 6 11 4
31 -2 27 1 34 11 30 8 -2 11 0 8 5 -3 6 -13 10 -21 10 -8 0 -14 7 -14 16 0 8
4 12 10 9 5 -3 16 0 24 7 11 11 11 14 -1 23 -12 9 -11 15 7 38 17 21 18 27 6
27 -9 0 -14 8 -13 20 1 11 5 20 9 20 15 0 8 19 -9 23 -13 3 -11 5 6 6 13 0 21
4 18 8 -4 3 -2 12 4 19 7 9 7 19 0 33 -14 26 -14 31 3 31 8 0 18 5 22 12 4 7
3 8 -4 4 -7 -4 -12 -3 -12 3 0 5 4 13 10 16 5 3 15 15 20 25 8 16 8 18 -5 14
-16 -7 -21 11 -5 21 5 3 7 12 3 21 -3 8 2 21 12 28 11 8 16 20 12 29 -3 8 0
21 8 27 7 6 11 21 8 33 -3 16 -2 18 5 8 7 -10 11 -10 17 -1 4 7 2 16 -5 20 -7
4 -14 29 -16 56 -2 27 -1 41 2 32 3 -10 10 -18 15 -18 6 0 8 4 5 9 -3 5 1 14
9 21 8 7 13 16 10 19 -10 18 -15 71 -5 71 5 0 10 -6 10 -12 0 -7 5 -5 11 5 9
14 7 22 -8 32 -17 14 -17 14 0 15 10 0 16 4 13 9 -4 5 0 11 6 14 10 3 10 9 2
24 -14 22 0 58 18 47 7 -5 9 0 6 14 -4 12 0 26 8 33 15 12 9 33 -7 24 -5 -3
-6 1 -3 9 3 9 10 16 14 16 4 0 10 7 13 14 4 9 1 13 -6 10 -8 -3 -13 4 -13 16
0 12 5 19 12 16 7 -3 10 3 7 15 -3 10 -9 19 -14 19 -5 0 -9 4 -9 10 0 5 8 7
18 3 13 -5 14 -3 5 7 -9 10 -7 17 8 33 10 12 15 23 10 26 -14 9 -1 62 13 54 6
-3 2 4 -9 16 -14 16 -15 22 -5 19 8 -2 14 3 12 10 -1 6 4 12 10 12 9 0 8 4 -2
10 -13 9 -13 11 0 20 10 7 12 12 4 18 -14 9 -29 66 -14 57 6 -3 10 3 10 17 0
13 5 30 11 38 9 12 10 11 6 -7 -3 -13 -1 -23 4 -23 13 0 11 34 -3 48 -15 15 7
43 28 35 8 -3 14 0 14 7 0 6 -4 9 -9 5 -15 -8 -41 36 -41 68 0 23 4 28 16 23
12 -5 15 -2 10 11 -4 9 -1 20 6 25 10 8 10 11 1 15 -18 7 -16 23 2 23 18 0 19
12 4 27 -8 8 -7 14 4 24 10 9 13 27 9 58 -4 31 -2 42 7 37 6 -4 11 -1 11 8 0
10 6 13 18 9 13 -4 11 0 -6 17 -13 12 -21 29 -18 37 3 8 6 17 6 19 0 3 5 2 12
-2 7 -4 8 -3 4 4 -4 7 -15 12 -24 12 -11 0 -18 9 -18 26 -2 20 2 25 16 21 13
-3 17 0 13 9 -3 8 -10 14 -16 14 -6 0 -8 3 -5 6 4 3 15 1 25 -5 18 -9 19 -7
14 22 -3 19 -6 25 -9 15 -4 -20 -11 -22 -32 -8 -13 8 -12 10 3 10 10 0 17 8
17 20 0 11 -7 20 -15 20 -19 0 -19 11 0 36 14 19 14 18 15 -3 0 -13 5 -23 11
-23 6 0 9 6 6 13 -3 8 3 14 15 14 11 1 22 4 24 6 9 8 -9 37 -22 37 -8 0 -14 7
-14 15 0 9 -11 20 -24 26 -14 7 -22 17 -19 25 3 9 -1 14 -12 14 -9 0 -13 5
-10 10 3 6 0 10 -8 10 -9 0 -14 10 -13 29 1 21 6 29 18 28 13 -1 14 -4 6 -14
-11 -14 -8 -14 54 -17 25 -2 27 1 26 38 0 26 5 42 16 48 9 5 16 13 16 18 0 13
-41 -1 -47 -16 -3 -8 -10 -11 -17 -7 -8 5 -8 3 0 -8 16 -21 15 -57 -2 -63 -10
-4 -14 3 -14 26 0 27 -2 29 -17 17 -12 -10 -17 -11 -20 -2 -3 8 -12 9 -34 1
-24 -8 -27 -13 -18 -24 9 -11 6 -16 -16 -24 -29 -11 -24 -35 6 -27 22 6 22 6
9 -28 -9 -24 -8 -26 12 -20 21 6 22 5 6 -8 -22 -17 -23 -27 -3 -27 12 0 13 -3
3 -19 -13 -22 -33 -17 -24 5 3 8 1 14 -4 14 -6 0 -9 5 -7 11 1 6 -3 13 -10 16
-8 3 -9 -4 -5 -19 5 -20 4 -21 -11 -10 -9 8 -24 12 -34 9 -16 -4 -16 -6 3 -12
15 -5 20 -13 17 -26 -3 -10 -10 -16 -15 -13 -6 4 -5 -2 1 -14 9 -17 8 -21 -7
-25 -16 -4 -16 -5 1 -6 9 0 17 -6 17 -12 0 -5 -4 -7 -10 -4 -5 3 -10 -2 -11
-12 0 -16 -1 -16 -8 2 -7 17 -10 15 -21 -17 -8 -20 -17 -35 -22 -32 -4 3 -8
-4 -8 -16 0 -12 -4 -19 -9 -15 -5 3 -13 0 -17 -6 -4 -8 -3 -9 4 -5 6 3 16 -3
22 -14 7 -13 18 -19 26 -16 15 6 18 -3 6 -19 -12 -17 -45 -11 -54 10 -6 16 -7
14 -3 -7 4 -23 2 -28 -15 -28 -11 0 -20 -4 -20 -10 0 -5 6 -10 14 -10 25 0 23
-34 -3 -58 -23 -21 -37 -62 -21 -62 4 0 7 -7 7 -15 0 -8 -4 -15 -9 -15 -5 0
-8 -6 -7 -12 4 -31 -2 -40 -21 -35 -21 5 -28 -7 -10 -18 17 -10 11 -25 -12
-35 -13 -5 -17 -9 -10 -9 21 -1 13 -31 -8 -31 -12 0 -20 -7 -20 -17 0 -14 2
-15 9 -5 6 10 10 10 21 -3 11 -14 10 -17 -9 -22 -17 -4 -19 -8 -10 -19 7 -9 7
-14 1 -14 -14 0 -21 -37 -9 -49 7 -7 5 -12 -6 -17 -22 -8 -22 -24 0 -24 14 0
15 -2 1 -17 -8 -10 -18 -26 -21 -35 -4 -10 -11 -18 -17 -18 -6 0 -9 -4 -6 -9
12 -19 -6 -42 -28 -36 -19 6 -20 5 -3 -8 20 -16 22 -38 6 -54 -16 -16 -17 -85
-1 -102 10 -10 10 -16 1 -27 -14 -16 -30 -9 -23 10 3 8 1 16 -4 20 -5 3 -7 -5
-6 -17 1 -12 3 -30 3 -40 1 -10 6 -15 11 -12 12 8 13 -5 1 -24 -7 -11 -11 -10
-20 5 -9 17 -10 17 -11 2 0 -9 4 -19 9 -22 4 -3 6 -17 3 -31 -3 -16 0 -25 9
-25 8 0 4 -8 -9 -20 -26 -25 -32 -25 -32 -2 0 14 -2 14 -9 3 -6 -9 -5 -22 2
-34 9 -15 9 -21 -1 -24 -6 -3 -9 -9 -6 -14 4 -6 11 -6 19 1 9 8 14 6 19 -5 4
-11 1 -15 -12 -13 -12 2 -16 -3 -14 -15 3 -15 -1 -17 -17 -12 -22 7 -28 -4
-12 -21 5 -5 7 -21 4 -35 -4 -21 -9 -25 -29 -21 -13 2 -24 0 -24 -7 0 -6 7 -8
17 -4 13 5 15 2 10 -11 -5 -11 -1 -19 12 -24 16 -6 17 -9 5 -20 -8 -7 -14 -8
-14 -2 0 5 -4 10 -10 10 -5 0 -7 -7 -3 -16 3 -9 0 -20 -8 -26 -10 -7 -11 -11
-2 -14 7 -3 9 -12 6 -20 -3 -8 0 -14 6 -14 6 0 11 -7 11 -15 0 -20 -17 -19
-29 3 -8 12 -10 13 -11 3 0 -8 8 -23 18 -34 9 -11 11 -17 5 -13 -8 4 -13 1
-13 -8 0 -9 4 -16 9 -16 5 0 8 -6 7 -12 -6 -28 -19 -48 -30 -48 -6 0 -12 -9
-12 -20 0 -13 5 -19 13 -16 20 8 15 -8 -9 -35 -26 -28 -34 -89 -12 -89 8 0 14
-8 13 -17 0 -11 -3 -13 -6 -5 -2 6 -12 12 -21 12 -13 0 -14 -2 -4 -9 18 -11 6
-74 -19 -97 -15 -13 -17 -19 -7 -26 9 -5 6 -8 -9 -8 -15 0 -23 -6 -23 -17 0
-15 2 -15 9 -4 8 12 12 12 26 -2 9 -10 11 -17 5 -17 -6 0 -11 -10 -10 -22 4
-45 0 -69 -10 -63 -6 4 -8 11 -5 16 4 5 2 9 -3 9 -13 0 -22 -39 -11 -46 5 -3
9 -13 9 -22 -1 -16 -2 -16 -14 1 -7 9 -15 17 -18 17 -11 0 19 -92 33 -101 10
-6 11 -9 1 -9 -7 0 -24 -11 -37 -25 -21 -20 -23 -25 -10 -32 11 -7 13 -16 6
-38 -4 -17 -4 -40 0 -53 6 -17 5 -22 -8 -22 -12 0 -13 -3 -4 -14 9 -11 8 -15
-4 -20 -12 -4 -14 -12 -10 -27 6 -17 4 -21 -8 -16 -11 4 -14 2 -10 -9 3 -7 0
-14 -7 -14 -6 0 -8 -5 -5 -11 4 -6 13 -8 21 -5 27 10 14 -9 -19 -28 -31 -18
-32 -19 -9 -27 26 -10 30 -21 6 -17 -10 2 -19 -3 -22 -11 -3 -10 0 -12 12 -8
14 5 15 3 6 -13 -7 -13 -7 -27 0 -46 9 -23 9 -25 -4 -15 -12 10 -16 8 -21 -8
-3 -12 -11 -21 -16 -21 -6 0 -7 -9 -4 -21 5 -15 4 -19 -5 -14 -8 5 -8 2 1 -13
7 -12 9 -27 4 -38 -5 -11 -7 -22 -7 -26 1 -5 -2 -8 -7 -8 -5 0 -12 -10 -16
-22 -13 -43 -12 -58 4 -58 13 0 14 -2 2 -9 -8 -5 -20 -7 -27 -4 -10 4 -13 -5
-10 -33 3 -45 -13 -82 -34 -76 -12 4 -13 2 -2 -9 19 -21 14 -34 -6 -16 -21 19
-32 22 -32 7 0 -5 7 -10 15 -10 8 0 15 -9 15 -19 0 -11 6 -21 13 -24 9 -3 9
-8 -2 -21 -8 -9 -21 -14 -30 -11 -13 4 -17 -1 -16 -22 0 -21 -5 -28 -17 -27
-13 1 -15 -2 -9 -15 5 -9 6 -22 4 -28 -3 -7 0 -13 6 -13 6 0 11 -7 11 -16 0
-13 -7 -15 -31 -10 -27 5 -30 4 -19 -9 7 -8 9 -15 4 -16 -5 0 1 -4 14 -9 12
-5 22 -14 22 -20 0 -6 -4 -9 -9 -6 -5 3 -14 -1 -21 -10 -7 -8 -19 -13 -27 -10
-7 3 -13 1 -13 -4 0 -6 4 -10 9 -10 15 0 7 -34 -11 -48 -10 -7 -18 -21 -18
-31 0 -10 -7 -24 -15 -31 -11 -9 -12 -17 -4 -32 9 -17 6 -26 -18 -51 -15 -18
-31 -34 -35 -37 -4 -3 -3 -12 2 -20 6 -8 10 -10 10 -5 0 6 4 3 9 -5 14 -20 4
-30 -32 -31 -24 -1 -26 -3 -9 -6 12 -2 22 -9 22 -14 0 -6 -9 -8 -19 -4 -18 5
-19 2 -14 -27 3 -24 0 -38 -11 -47 -11 -9 -16 -10 -16 -2 0 6 -4 11 -10 11
-18 0 -11 -18 10 -25 24 -8 27 -27 3 -23 -11 2 -22 -8 -31 -24 -7 -16 -17 -28
-21 -28 -4 0 -8 -7 -8 -15 0 -9 6 -14 14 -11 8 4 11 1 7 -5 -3 -6 -17 -8 -31
-5 -23 6 -45 -6 -54 -31 -3 -8 -9 -9 -18 -3 -12 7 -12 11 -2 24 11 13 11 19 1
31 -6 8 -9 19 -5 24 3 6 -3 19 -15 31 -26 26 -70 26 -139 0 -30 -11 -57 -17
-60 -14 -3 3 -6 47 -5 97 0 63 -4 96 -13 105 -17 17 -16 27 2 100 9 33 18 73
20 89 15 92 46 153 69 134 21 -18 74 -9 96 16 11 13 20 30 20 38 0 8 6 15 14
15 8 0 16 7 20 15 3 8 15 15 26 15 14 0 20 7 20 22 0 20 29 107 50 149 9 17
23 120 22 153 -2 33 -19 41 -55 28 -48 -17 -77 -15 -77 6 1 20 33 62 48 62 20
0 72 62 72 85 0 31 -11 37 -79 44 -53 6 -57 8 -75 44 -10 22 -20 63 -21 93 -2
30 -5 58 -9 61 -3 3 -18 -3 -33 -13 -30 -19 -63 -26 -63 -12 0 5 -12 7 -27 5
-25 -3 -32 3 -67 62 -22 36 -43 68 -46 71 -4 3 -15 20 -24 37 -9 18 -27 40
-40 48 -16 11 -22 22 -19 35 3 11 9 18 13 15 5 -3 12 -1 15 5 4 6 1 9 -5 8
-18 -4 -21 32 -4 38 46 14 46 14 35 27 -8 11 -5 17 14 27 27 15 62 60 45 60
-6 0 -5 8 2 22 19 34 49 58 62 51 6 -4 5 1 -2 9 -8 9 -20 14 -29 11 -13 -5
-13 -3 -4 15 13 24 41 30 41 10 0 -7 5 -5 11 5 12 20 2 40 -16 33 -15 -5 -38
17 -28 27 3 4 13 1 21 -6 11 -8 14 -8 9 0 -4 6 -2 15 4 19 8 4 7 9 -2 15 -12
8 -11 11 1 22 9 6 14 20 12 30 -2 11 2 16 10 15 7 -2 12 4 10 14 -2 12 3 15
18 11 19 -5 20 -2 14 35 -5 29 -2 47 10 63 9 13 16 19 16 13 0 -6 7 -11 15
-11 21 0 19 6 -11 33 -14 13 -20 24 -15 24 6 0 11 7 11 15 0 11 5 12 26 5 30
-12 44 -13 27 -2 -25 16 -14 72 16 72 15 1 15 2 0 13 -9 7 -14 18 -12 25 3 7
-1 10 -11 6 -12 -5 -15 -2 -10 10 3 9 13 15 22 14 10 -2 16 7 19 27 3 24 2 28
-8 18 -20 -20 -31 -15 -17 7 7 11 18 20 25 20 7 0 13 5 13 10 0 6 -4 10 -8 10
-5 0 -9 7 -9 15 0 13 4 13 26 -1 14 -9 21 -11 14 -4 -6 7 -9 19 -6 27 3 7 2
13 -3 12 -5 -1 -17 -1 -26 0 -25 2 -11 31 15 31 16 0 18 3 9 12 -8 8 -6 18 10
41 18 25 19 30 5 24 -20 -7 -22 4 -5 21 9 9 14 7 23 -5 11 -14 13 -12 17 15 4
25 2 29 -9 21 -10 -9 -13 -7 -13 10 0 11 5 21 10 21 14 0 12 17 -6 56 -9 19
-14 38 -10 41 3 3 6 -2 6 -13 1 -13 8 -7 25 21 16 26 23 49 20 67 -4 19 0 30
12 38 13 8 14 13 6 16 -17 7 -16 22 0 39 9 9 19 10 30 3 22 -12 23 5 1 23 -8
7 -14 22 -12 34 3 12 -1 27 -9 33 -7 7 -13 18 -13 25 0 9 2 9 8 0 9 -14 22 -7
46 27 10 14 16 17 13 8 -5 -13 -1 -18 14 -18 16 0 18 5 13 25 -4 17 -2 25 6
25 10 0 10 3 0 15 -7 8 -21 15 -31 15 -11 0 -19 5 -19 10 0 12 6 13 29 1 9 -5
23 -6 30 -1 10 6 8 9 -7 15 -36 11 -11 58 26 50 20 -3 21 3 13 54 -1 2 -10 -4
-20 -13 -15 -13 -20 -14 -24 -4 -3 7 -6 2 -7 -12 -1 -23 -1 -24 -12 -6 -8 15
-8 21 1 24 6 2 17 10 25 17 7 8 15 13 17 12 3 -1 -2 3 -9 10 -11 9 -8 12 14
15 15 2 29 10 31 18 3 10 2 11 -4 4 -4 -6 -17 -8 -27 -4 -19 6 -19 7 2 22 23
16 20 30 -4 21 -10 -4 -12 0 -8 12 4 9 17 21 30 26 25 9 33 29 12 29 -8 0 -5
7 6 15 20 15 20 15 0 15 -19 1 -19 1 1 16 11 8 19 21 17 28 -3 15 25 29 39 20
13 -8 11 10 -3 24 -9 9 -7 12 10 12 13 0 22 6 22 15 0 17 -16 20 -25 5 -3 -5
-15 -10 -26 -10 -10 0 -19 5 -19 10 0 6 4 10 9 10 5 0 12 9 16 19 6 19 20 22
43 8 7 -5 12 -3 12 7 0 8 -7 13 -17 11 -10 -1 -26 4 -35 12 -15 14 -14 18 18
51 19 21 42 45 51 54 20 21 10 36 -12 18 -9 -7 -15 -8 -15 -2 0 6 16 20 35 32
40 25 44 36 16 45 -11 3 -23 15 -26 26 -4 10 -13 19 -21 19 -8 0 -14 7 -14 16
0 13 8 9 29 -13 20 -21 33 -28 42 -22 9 5 9 9 3 9 -7 0 -14 11 -16 25 -3 14
-2 25 2 25 4 0 5 11 3 24 -4 21 -2 24 16 19 12 -3 21 -1 22 3 0 5 2 20 5 33 2
13 0 29 -5 35 -6 7 -6 17 -1 26 9 13 10 13 10 0 0 -9 6 -4 14 10 11 21 11 27
-1 37 -8 6 -12 16 -9 22 4 5 -2 12 -13 16 -21 6 -34 44 -25 70 5 13 15 16 38
12 17 -3 25 -3 18 0 -7 2 -17 13 -22 24 -8 15 -7 17 4 13 13 -5 14 0 6 25 -5
17 -5 29 0 26 4 -2 10 5 14 18 9 34 7 40 -9 34 -8 -4 -17 -2 -20 3 -7 11 56
25 64 14 10 -15 53 -16 48 -2 -2 7 -11 12 -19 10 -9 -1 -19 5 -22 14 -5 13 -9
14 -21 4 -12 -10 -15 -9 -15 5 0 11 -5 15 -15 11 -9 -3 -15 0 -15 10 0 10 6
14 14 11 12 -5 14 1 11 24 -2 16 0 27 5 24 5 -3 7 -11 4 -18 -5 -15 21 -55 31
-46 3 4 8 20 10 37 3 25 0 31 -21 36 -17 5 -34 0 -54 -14 -15 -11 -33 -20 -40
-20 -18 0 -42 28 -30 35 5 3 10 1 10 -5 0 -6 11 -10 25 -8 30 4 34 23 5 22
-11 0 -20 3 -20 7 0 9 70 42 77 36 8 -9 42 26 36 36 -3 5 -9 4 -13 -2 -10 -17
-40 -2 -40 19 0 10 -9 22 -20 25 -11 3 -20 12 -21 18 0 7 -7 -1 -14 -18 l-13
-30 -19 32 c-16 29 -33 43 -33 28z m104 -50 c4 -10 -1 -15 -16 -15 -17 0 -18
2 -8 15 7 8 14 15 15 15 2 0 5 -7 9 -15z m-74 -145 c0 -5 -2 -10 -4 -10 -3 0
-8 5 -11 10 -3 6 -1 10 4 10 6 0 11 -4 11 -10z m30 -30 c0 -5 -8 -10 -17 -10
-15 0 -16 2 -3 10 19 12 20 12 20 0z m8 -44 c-13 -10 -15 -15 -6 -24 8 -8 9
-12 1 -12 -19 0 -23 29 -5 39 24 15 30 13 10 -3z m-128 -6 c0 -5 -5 -10 -11
-10 -5 0 -7 5 -4 10 3 6 8 10 11 10 2 0 4 -4 4 -10z m130 -50 c0 6 4 10 9 10
17 0 1 -81 -20 -103 l-20 -22 7 30 c4 17 11 35 16 41 5 7 2 16 -7 24 -12 10
-15 10 -15 0 0 -17 -13 -4 -16 15 -2 11 3 12 22 5 15 -6 24 -6 24 0z m-140
-133 c0 -5 -4 -5 -10 -2 -5 3 -10 14 -10 23 0 15 2 15 10 2 5 -8 10 -19 10
-23z m-1030 -67 c-19 -13 -30 -13 -30 0 0 6 10 10 23 10 18 0 19 -2 7 -10z
m1160 -12 c0 -13 -23 -5 -28 10 -2 7 2 10 12 6 9 -3 16 -11 16 -16z m-1215
-16 c-5 -4 -12 -16 -13 -27 -2 -11 -9 -23 -15 -27 -15 -9 -37 2 -37 19 0 13 3
13 15 3 12 -10 15 -10 15 2 0 17 20 38 35 38 6 0 7 -3 0 -8z m30 -2 c3 -5 1
-10 -4 -10 -6 0 -11 5 -11 10 0 6 2 10 4 10 3 0 8 -4 11 -10z m60 -9 c-3 -5 4
-12 15 -16 11 -3 20 -10 20 -15 0 -13 -33 1 -46 18 -6 8 -16 12 -22 8 -7 -4
-12 -2 -12 3 0 6 12 11 26 11 14 0 23 -4 19 -9z m1120 -1 c3 -5 1 -10 -4 -10
-6 0 -11 5 -11 10 0 6 2 10 4 10 3 0 8 -4 11 -10z m-275 -20 c0 -5 -5 -10 -11
-10 -5 0 -7 5 -4 10 3 6 8 10 11 10 2 0 4 -4 4 -10z m-883 -35 c-16 -17 -17
-14 -10 14 4 15 8 19 13 10 5 -6 3 -18 -3 -24z m1143 -11 c0 -2 -9 -4 -20 -4
-11 0 -20 4 -20 9 0 5 9 7 20 4 11 -3 20 -7 20 -9z m-1205 -32 c-3 -3 -11 0
-18 7 -9 10 -8 11 6 5 10 -3 15 -9 12 -12z m1201 3 c-8 -8 -17 -15 -20 -15 -3
0 -6 7 -6 15 0 9 9 15 21 15 18 0 19 -2 5 -15z m-1161 -15 c3 -5 -1 -10 -9
-10 -9 0 -16 5 -16 10 0 6 4 10 9 10 6 0 13 -4 16 -10z m851 -17 c-10 -10 -19
5 -10 18 6 11 8 11 12 0 2 -7 1 -15 -2 -18z m-816 -13 c0 -5 -2 -10 -4 -10 -3
0 -8 5 -11 10 -3 6 -1 10 4 10 6 0 11 -4 11 -10z m-69 -13 c-6 -8 -8 -17 -4
-20 3 -4 -3 -7 -15 -7 -14 0 -22 6 -22 16 0 10 6 14 15 11 8 -4 17 -2 20 3 4
6 9 10 12 10 3 0 0 -6 -6 -13z m909 9 c0 -2 -7 -9 -15 -16 -12 -10 -15 -10
-15 4 0 9 7 16 15 16 8 0 15 -2 15 -4z m-802 -20 c-7 -8 -15 -12 -17 -11 -5 6
10 25 20 25 5 0 4 -6 -3 -14z m-41 -18 c-3 -8 -6 -5 -6 6 -1 11 2 17 5 13 3
-3 4 -12 1 -19z m83 -2 c0 -8 6 -17 13 -19 6 -3 3 -6 -8 -6 -14 -1 -21 5 -21
19 0 11 4 20 8 20 4 0 8 -6 8 -14z m-206 -31 c-4 -8 -13 -15 -20 -15 -12 0
-12 3 -2 15 17 19 29 19 22 0z m144 1 c-7 -8 -17 -12 -22 -9 -4 3 -2 9 5 14
22 13 31 11 17 -5z m-88 -38 c11 -12 20 -26 20 -31 0 -6 -11 2 -25 17 -14 15
-25 29 -25 32 0 9 10 3 30 -18z m110 3 c0 -5 -7 -11 -14 -14 -10 -4 -13 -1 -9
9 6 15 23 19 23 5z m48 -30 c7 -18 7 -33 0 -42 -8 -11 -9 -10 -4 4 3 10 0 17
-8 17 -14 0 -28 35 -18 44 11 12 20 5 30 -23z m1052 -1 c0 -5 -4 -10 -10 -10
-5 0 -10 5 -10 10 0 6 5 10 10 10 6 0 10 -4 10 -10z m-1133 -16 c-3 -3 -12 -4
-19 -1 -8 3 -5 6 6 6 11 1 17 -2 13 -5z m778 -4 c-3 -5 -12 -10 -18 -10 -7 0
-6 4 3 10 19 12 23 12 15 0z m-812 -27 c9 3 20 0 26 -7 8 -10 5 -12 -12 -10
-12 1 -28 3 -34 3 -7 1 -13 9 -13 19 0 14 2 14 9 3 5 -8 16 -11 24 -8z m757 7
c0 -5 -5 -9 -12 -7 -19 3 -22 -35 -4 -49 14 -10 14 -13 2 -24 -22 -18 -37 -3
-31 31 4 20 2 28 -5 24 -5 -3 -10 -2 -10 3 0 5 10 14 23 20 29 14 37 14 37 2z
m-873 -22 c-3 -8 -6 -5 -6 6 -1 11 2 17 5 13 3 -3 4 -12 1 -19z m2298 11 c11
-17 2 -18 -19 -3 -17 12 -17 14 -4 14 9 0 20 -5 23 -11z m-2243 -44 c-6 -12
-11 -14 -16 -6 -4 6 -2 11 4 11 7 0 9 7 5 18 -5 13 -3 14 5 5 8 -7 9 -17 2
-28z m756 15 c10 -17 10 -20 -3 -20 -8 0 -15 5 -15 11 0 5 -4 7 -10 4 -6 -3
-7 1 -4 9 8 21 17 20 32 -4z m62 5 c-7 -9 -15 -13 -17 -11 -7 7 7 26 19 26 6
0 6 -6 -2 -15z m-705 -14 c-3 -6 -11 -11 -17 -11 -6 0 -6 6 2 15 14 17 26 13
15 -4z m2015 -11 c0 -4 -6 -12 -13 -18 -10 -8 -13 -7 -14 7 -1 10 5 18 13 18
8 0 14 -4 14 -7z m-1280 -24 c0 -3 -4 -8 -10 -11 -5 -3 -10 -1 -10 4 0 6 5 11
10 11 6 0 10 -2 10 -4z m1325 -14 c0 -18 -20 -15 -23 4 -3 10 1 15 10 12 7 -3
13 -10 13 -16z m-35 -16 c0 -8 -7 -16 -15 -20 -10 -4 -15 1 -15 14 0 11 7 20
15 20 8 0 15 -6 15 -14z m-1330 0 c0 -3 -4 -8 -10 -11 -5 -3 -10 -1 -10 4 0 6
5 11 10 11 6 0 10 -2 10 -4z m-723 -32 c-3 -3 -12 -4 -19 -1 -8 3 -5 6 6 6 11
1 17 -2 13 -5z m1003 -9 c-7 -9 -15 -13 -19 -10 -3 3 1 10 9 15 21 14 24 12
10 -5z m1019 -21 c-15 -18 -43 -18 -58 0 -9 11 -8 14 6 12 10 0 21 -5 25 -11
4 -5 10 -2 14 8 3 9 10 14 16 11 5 -3 4 -11 -3 -20z m-1343 -6 c5 -8 2 -9 -9
-5 -10 3 -17 2 -17 -3 0 -6 5 -10 12 -10 6 0 9 -3 5 -6 -3 -3 -15 1 -27 9 -15
11 -18 16 -8 20 22 9 37 8 44 -5z m-627 -5 c14 10 14 10 3 -5 -14 -17 -42 -14
-42 5 0 8 4 7 12 -1 9 -9 15 -9 27 1z m1908 -19 c-3 -3 -12 -4 -19 -1 -8 3 -5
6 6 6 11 1 17 -2 13 -5z m33 2 c0 -3 -4 -8 -10 -11 -5 -3 -10 -1 -10 4 0 6 5
11 10 11 6 0 10 -2 10 -4z m32 -18 c-7 -7 -12 -8 -12 -2 0 14 12 26 19 19 2
-3 -1 -11 -7 -17z m-1016 -35 c-10 -10 -19 5 -10 18 6 11 8 11 12 0 2 -7 1
-15 -2 -18z m944 23 c0 -3 -4 -8 -10 -11 -5 -3 -10 -1 -10 4 0 6 5 11 10 11 6
0 10 -2 10 -4z m-1260 -16 c0 -5 -4 -10 -10 -10 -5 0 -10 5 -10 10 0 6 5 10
10 10 6 0 10 -4 10 -10z m1310 -10 c0 -5 -5 -10 -11 -10 -5 0 -7 5 -4 10 3 6
8 10 11 10 2 0 4 -4 4 -10z m-1990 -16 c0 -8 -5 -12 -10 -9 -6 4 -8 11 -5 16
9 14 15 11 15 -7z m-14 -29 c14 -12 15 -14 2 -9 -13 4 -15 1 -11 -15 6 -25 -5
-27 -22 -4 -12 17 -10 43 4 43 4 0 16 -7 27 -15z m979 5 c3 -6 -1 -7 -9 -4
-18 7 -21 14 -7 14 6 0 13 -4 16 -10z m971 -2 c4 -6 2 -14 -4 -16 -7 -2 -9 -9
-5 -15 4 -7 -1 -5 -11 3 -11 8 -14 16 -7 18 6 2 9 8 5 13 -3 5 -1 9 5 9 5 0
13 -5 17 -12z m-2023 -12 c17 -13 16 -14 -3 -19 -17 -4 -50 14 -50 29 0 9 36
3 53 -10z m197 4 c8 -5 11 -10 5 -10 -5 0 -17 5 -25 10 -8 5 -10 10 -5 10 6 0
17 -5 25 -10z m570 -10 c0 -5 -2 -10 -4 -10 -3 0 -8 5 -11 10 -3 6 -1 10 4 10
6 0 11 -4 11 -10z m1460 -16 c0 -8 -4 -12 -10 -9 -5 3 -10 10 -10 16 0 5 5 9
10 9 6 0 10 -7 10 -16z m-1572 -29 c2 -2 2 -11 0 -20 -3 -15 -5 -14 -23 3 -12
10 -27 22 -35 25 -8 4 1 4 20 1 19 -4 37 -8 38 -9z m-605 -11 c-3 -9 -9 -12
-12 -7 -3 4 -10 11 -15 16 -5 4 0 7 12 7 15 0 20 -4 15 -16z m47 -14 c0 -5 -7
-10 -15 -10 -8 0 -15 5 -15 10 0 6 7 10 15 10 8 0 15 -4 15 -10z m1888 -8 c2
-6 -6 -10 -16 -9 -12 1 -18 6 -15 14 6 16 25 13 31 -5z m-1282 -7 c-3 -8 -1
-15 4 -15 6 0 10 -4 10 -10 0 -5 -4 -10 -9 -10 -12 0 -23 29 -15 41 9 15 17
10 10 -6z m-593 -24 c-4 -16 -8 -19 -14 -10 -4 7 -3 19 3 26 14 18 19 12 11
-16z m19 -13 c-7 -7 -12 -8 -12 -2 0 14 12 26 19 19 2 -3 -1 -11 -7 -17z m534
-15 c-11 -11 -17 4 -9 23 7 18 8 18 11 1 2 -10 1 -21 -2 -24z m-23 -24 c-5
-16 -7 -17 -20 -3 -12 12 -13 17 -2 30 15 18 29 1 22 -27z m-606 -5 c-3 -3
-12 -4 -19 -1 -8 3 -5 6 6 6 11 1 17 -2 13 -5z m48 -5 c11 -17 -1 -21 -15 -4
-8 9 -8 15 -2 15 6 0 14 -5 17 -11z m565 -39 c0 -5 -4 -10 -10 -10 -5 0 -10 5
-10 10 0 6 5 10 10 10 6 0 10 -4 10 -10z m-580 -10 c0 -5 -2 -10 -4 -10 -3 0
-8 5 -11 10 -3 6 -1 10 4 10 6 0 11 -4 11 -10z m57 -25 c6 -14 7 -25 2 -25 -5
0 -12 7 -16 16 -5 13 -9 12 -29 -7 -20 -18 -24 -19 -24 -6 0 14 35 47 50 47 3
0 10 -11 17 -25z m73 -25 c0 -5 -8 -11 -17 -11 -17 -1 -17 -2 0 -6 9 -2 15 -9
12 -14 -4 -5 -1 -9 5 -9 18 0 -5 -33 -25 -36 -11 -2 -15 2 -11 12 3 8 2 13 -2
10 -4 -2 -20 2 -37 10 l-30 14 33 -6 c29 -5 33 -3 32 13 -1 10 -2 21 -1 26 2
11 41 8 41 -3z m195 -10 c3 -5 1 -10 -4 -10 -6 0 -11 5 -11 10 0 6 2 10 4 10
3 0 8 -4 11 -10z m-95 -65 c0 -7 -5 -17 -10 -20 -6 -4 -17 -21 -24 -38 -12
-27 -15 -28 -15 -10 -1 12 -4 23 -8 26 -5 2 -2 2 5 1 6 -2 12 1 12 6 0 6 -7
10 -15 10 -8 0 -16 8 -16 18 -1 16 -2 16 -6 0 -2 -10 -8 -18 -13 -18 -4 0 -6
9 -3 20 4 14 11 19 23 15 11 -3 20 1 24 10 4 13 10 14 26 5 11 -6 20 -17 20
-25z m-136 -49 c3 -21 1 -24 -10 -15 -8 6 -14 23 -14 37 0 34 20 15 24 -22z
m163 4 c-1 -16 -3 -30 -4 -30 -8 0 -23 42 -18 50 12 20 24 9 22 -20z m-117
-34 c-8 -11 -9 -16 -1 -16 6 0 11 -7 11 -15 0 -8 -7 -15 -15 -15 -15 0 -16 3
-19 39 0 11 -4 22 -8 26 -4 4 -4 14 -1 22 5 12 9 11 26 -6 17 -17 18 -22 7
-35z m275 34 c8 -13 -15 -13 -35 0 -12 8 -11 10 7 10 12 0 25 -4 28 -10z m85
0 c0 -5 -5 -10 -11 -10 -5 0 -7 5 -4 10 3 6 8 10 11 10 2 0 4 -4 4 -10z m-133
-20 c14 -11 21 -20 14 -20 -6 0 -11 -6 -11 -14 0 -8 -8 -17 -17 -20 -10 -4
-14 -4 -10 0 4 4 2 13 -4 21 -9 10 -7 13 7 13 16 0 16 3 -6 20 -14 11 -19 20
-12 20 8 0 25 -9 39 -20z m93 10 c8 -5 11 -10 5 -10 -5 0 -17 5 -25 10 -8 5
-10 10 -5 10 6 0 17 -5 25 -10z m450 6 c0 -2 -7 -7 -16 -10 -8 -3 -12 -2 -9 4
6 10 25 14 25 6z m895 -16 c3 -5 2 -10 -4 -10 -5 0 -13 5 -16 10 -3 6 -2 10 4
10 5 0 13 -4 16 -10z m-1571 -39 c-9 -10 -26 18 -18 30 5 9 9 8 14 -7 4 -10 6
-21 4 -23z m-138 2 c-8 -8 -36 5 -36 17 0 7 6 7 21 0 11 -7 18 -14 15 -17z
m-74 -15 c-7 -7 -12 -8 -12 -2 0 14 12 26 19 19 2 -3 -1 -11 -7 -17z m314 -56
c-4 -3 -11 -1 -15 6 -8 13 -41 6 -41 -9 0 -5 -4 -9 -10 -9 -5 0 -10 7 -10 15
0 8 5 14 12 13 7 -2 13 4 14 12 0 8 2 21 2 28 1 8 13 0 28 -18 15 -17 23 -34
20 -38z m-96 43 c10 -12 10 -15 -3 -15 -8 0 -17 7 -21 15 -3 8 -2 15 3 15 5 0
14 -7 21 -15z m138 -26 c19 -30 9 -33 -16 -4 -13 15 -17 25 -9 25 7 0 18 -9
25 -21z m489 6 c9 -24 -1 -27 -20 -5 -14 17 -15 20 -2 20 9 0 18 -7 22 -15z
m-689 -15 c-7 -11 -16 -20 -21 -20 -4 0 -3 9 3 20 6 11 15 20 20 20 6 0 5 -9
-2 -20z m1589 -22 c-3 -8 -6 -5 -6 6 -1 11 2 17 5 13 3 -3 4 -12 1 -19z
m-1297 2 c0 -5 -7 -7 -15 -4 -8 4 -15 8 -15 10 0 2 7 4 15 4 8 0 15 -4 15 -10z
m358 -45 c-3 -3 -9 2 -12 12 -6 14 -5 15 5 6 7 -7 10 -15 7 -18z m-769 -15 c4
0 7 -13 6 -30 0 -16 -3 -30 -7 -30 -5 0 -8 11 -8 25 0 23 -10 30 -33 26 -5 -1
-5 3 -2 9 4 6 14 9 22 6 8 -3 18 -6 22 -6z m131 6 c0 -11 -19 -15 -25 -6 -3 5
1 10 9 10 9 0 16 -2 16 -4z m-150 -62 c0 -8 -4 -14 -8 -14 -5 0 -17 6 -27 14
-18 13 -17 14 8 14 16 0 27 -6 27 -14z m1680 2 c0 -3 -4 -8 -10 -11 -5 -3 -10
-1 -10 4 0 6 5 11 10 11 6 0 10 -2 10 -4z m-890 -20 c0 -3 -4 -8 -10 -11 -5
-3 -10 -1 -10 4 0 6 5 11 10 11 6 0 10 -2 10 -4z m887 -38 c-3 -7 -5 -2 -5 12
0 14 2 19 5 13 2 -7 2 -19 0 -25z m-1667 18 c0 -2 -6 -9 -14 -15 -11 -9 -16
-9 -22 0 -4 8 -3 9 4 5 7 -4 12 -2 12 3 0 6 5 11 10 11 6 0 10 -2 10 -4z m25
-76 c3 -5 1 -10 -4 -10 -6 0 -11 5 -11 10 0 6 2 10 4 10 3 0 8 -4 11 -10z
m712 -16 c-3 -3 -12 -4 -19 -1 -8 3 -5 6 6 6 11 1 17 -2 13 -5z m-47 -99 c-7
-9 -15 -13 -19 -10 -3 3 1 10 9 15 21 14 24 12 10 -5z m-770 -20 c10 -12 10
-15 -4 -15 -9 0 -16 7 -16 15 0 8 2 15 4 15 2 0 9 -7 16 -15z m50 -100 c-7 -9
-15 -13 -19 -10 -3 3 1 10 9 15 21 14 24 12 10 -5z m-40 -35 c0 -5 -9 -6 -20
-3 -11 3 -17 9 -15 14 7 10 35 1 35 -11z m-9 -131 c-9 -22 -10 -22 -10 -3 -1
11 2 24 6 27 12 12 14 0 4 -24z m-1 -39 c0 -5 -2 -10 -4 -10 -3 0 -8 5 -11 10
-3 6 -1 10 4 10 6 0 11 -4 11 -10z m730 -5 c0 -8 -7 -15 -15 -15 -8 0 -15 -5
-15 -12 0 -6 -2 -9 -5 -6 -9 8 6 38 16 32 5 -3 9 0 9 5 0 6 2 11 5 11 3 0 5
-7 5 -15z m-734 -222 c-10 -10 -19 5 -10 18 6 11 8 11 12 0 2 -7 1 -15 -2 -18z
m646 5 c-7 -7 -12 -8 -12 -2 0 14 12 26 19 19 2 -3 -1 -11 -7 -17z m935 -86
c0 -10 -6 -19 -13 -19 -9 0 -9 5 -1 19 7 10 13 18 14 18 1 0 1 -8 0 -18z
m3553 -293 c0 -10 -4 -19 -9 -19 -5 0 -8 11 -7 24 1 28 16 24 16 -5z m-4627 3
c2 7 7 10 11 7 4 -3 0 -11 -7 -18 -11 -9 -17 -7 -28 6 -13 16 -12 17 3 5 13
-10 17 -10 21 0z m3517 -83 c0 -6 -4 -7 -10 -4 -5 3 -10 11 -10 16 0 6 5 7 10
4 6 -3 10 -11 10 -16z m-2590 -413 c0 -11 -19 -15 -25 -6 -3 5 1 10 9 10 9 0
16 -2 16 -4z m2953 -67 c-17 -17 -37 -1 -22 17 8 10 15 12 23 4 7 -7 7 -13 -1
-21z m55 15 c-9 -10 -21 -13 -29 -8 -9 5 -8 9 7 15 31 12 39 10 22 -7z m-113
-53 c-7 -23 -24 -29 -21 -8 2 18 17 39 23 33 3 -2 2 -14 -2 -25z m-4349 -117
c-3 -9 -6 -20 -6 -25 0 -5 -4 -9 -10 -9 -5 0 -10 7 -10 15 0 8 5 15 11 15 5 0
7 5 4 10 -3 6 -1 10 5 10 7 0 9 -7 6 -16z m-6 -104 c0 -5 -4 -10 -10 -10 -5 0
-10 5 -10 10 0 6 5 10 10 10 6 0 10 -4 10 -10z m7190 -139 c0 -6 -4 -13 -10
-16 -5 -3 -10 1 -10 9 0 9 5 16 10 16 6 0 10 -4 10 -9z m-5 -49 c-3 -3 -11 0
-18 7 -9 10 -8 11 6 5 10 -3 15 -9 12 -12z m-7295 -18 c0 -8 -4 -12 -10 -9 -5
3 -10 10 -10 16 0 5 5 9 10 9 6 0 10 -7 10 -16z m330 -103 c0 -5 9 -12 19 -16
19 -6 27 -30 47 -140 3 -15 9 -36 15 -47 8 -15 14 -101 10 -145 -1 -18 -21
-16 -21 2 0 8 -5 15 -11 15 -5 0 -7 5 -4 10 3 6 2 10 -3 10 -5 0 -12 8 -14 18
-3 9 -6 22 -8 27 -7 24 -75 51 -86 34 -3 -5 -11 -9 -17 -8 -9 0 -8 2 1 6 6 2
10 9 7 13 -9 14 -34 0 -28 -16 3 -8 2 -14 -2 -14 -14 0 -45 21 -45 31 0 6 5 7
11 4 6 -4 5 2 -2 13 -10 16 -17 18 -31 11 -10 -5 -18 -6 -18 -1 0 12 39 52 51
52 7 0 9 10 5 25 -4 14 -2 25 4 25 5 0 10 9 10 21 0 28 56 79 86 79 13 0 24
-4 24 -9z m-130 -56 c-7 -8 -18 -15 -24 -15 -6 0 -2 7 8 15 25 19 32 19 16 0z
m-257 -20 c-3 -9 -8 -14 -10 -11 -3 3 -2 9 2 15 9 16 15 13 8 -4z m7259 -230
c55 -9 98 -49 98 -91 0 -33 -28 -74 -50 -74 -14 0 -144 132 -147 149 -3 24 7
32 35 27 15 -2 44 -7 64 -11z m-7432 -119 c0 -3 -4 -8 -10 -11 -5 -3 -10 -1
-10 4 0 6 5 11 10 11 6 0 10 -2 10 -4z m1330 -230 c0 -11 -19 -15 -25 -6 -3 5
1 10 9 10 9 0 16 -2 16 -4z m-1495 -36 c3 -5 2 -10 -4 -10 -5 0 -17 -3 -27 -7
-16 -6 -17 -5 -4 10 17 19 26 21 35 7z m1326 -31 c11 -5 17 -14 14 -20 -4 -5
-11 -7 -16 -4 -5 4 -9 -1 -9 -9 0 -9 -4 -16 -9 -16 -5 0 -12 -8 -15 -18 -7
-21 -41 -43 -73 -47 -18 -2 -23 2 -19 12 3 8 6 21 6 29 0 8 7 14 15 14 8 0 15
7 15 15 0 9 11 20 24 25 13 5 27 14 31 19 8 14 11 14 36 0z m-751 -69 c0 -5
-2 -10 -4 -10 -3 0 -8 5 -11 10 -3 6 -1 10 4 10 6 0 11 -4 11 -10z m16 -29
c-3 -5 1 -14 9 -21 16 -13 9 -40 -11 -40 -9 0 -11 -6 -7 -17 5 -13 1 -12 -17
5 -13 12 -29 22 -34 22 -6 1 0 10 13 20 13 11 20 20 17 20 -4 0 -4 5 -1 10 3
6 13 10 21 10 8 0 13 -4 10 -9z m7024 -51 c0 -5 -5 -10 -11 -10 -5 0 -7 5 -4
10 3 6 8 10 11 10 2 0 4 -4 4 -10z m-6586 -6 c9 -3 16 -14 16 -24 0 -10 10
-20 22 -23 12 -4 19 -9 15 -13 -3 -4 2 -19 12 -33 10 -14 16 -32 14 -39 -3 -8
1 -10 14 -6 16 6 16 5 -2 -9 -19 -15 -19 -16 -1 -17 11 0 16 -5 13 -14 -3 -7
0 -19 6 -26 9 -10 9 -14 0 -17 -22 -8 -14 -21 9 -15 15 3 19 2 14 -7 -4 -6 -2
-19 6 -28 11 -14 11 -16 -1 -9 -10 7 -12 3 -6 -13 4 -13 2 -21 -5 -21 -8 0
-10 -8 -5 -22 4 -13 8 -35 10 -50 2 -22 -2 -27 -25 -30 -38 -6 -64 15 -58 46
4 19 0 27 -14 32 -13 4 -17 11 -13 24 3 10 1 21 -5 25 -5 3 -10 1 -10 -6 0 -8
-4 -9 -13 0 -10 8 -17 7 -25 -1 -7 -7 -12 -9 -12 -5 0 3 -21 -3 -46 -13 -25
-11 -47 -20 -49 -20 -6 0 2 176 9 188 4 7 2 12 -3 12 -17 0 -13 48 5 75 9 14
23 25 31 25 8 0 12 4 9 9 -4 5 6 14 21 19 34 13 47 14 67 6z m7142 -430 c6 -7
15 -10 19 -6 5 4 5 2 2 -4 -3 -6 5 -22 19 -37 25 -27 31 -52 14 -62 -5 -3 -10
-17 -10 -30 0 -16 -5 -23 -13 -19 -7 2 -28 -9 -45 -26 -18 -16 -36 -30 -42
-30 -5 0 -10 -6 -10 -13 0 -8 -9 -22 -19 -31 -11 -10 -22 -29 -26 -43 -4 -19
-10 -23 -23 -18 -9 4 -27 10 -39 12 -15 4 -23 13 -23 27 -1 18 -2 19 -13 6 -7
-9 -20 -14 -31 -12 -11 2 -16 0 -12 -6 11 -18 -13 -24 -30 -8 -8 9 -22 16 -31
16 -14 0 -14 -2 0 -23 13 -21 13 -26 -2 -53 -9 -16 -19 -31 -24 -32 -4 -2 -4
-8 -1 -14 3 -5 -7 -24 -24 -41 -16 -18 -33 -43 -37 -57 -4 -14 -16 -33 -26
-43 -18 -17 -19 -17 -19 2 0 15 -5 19 -17 14 -11 -5 -14 -3 -8 6 4 8 2 17 -6
22 -12 7 -12 11 -1 17 18 12 43 62 36 73 -3 5 2 12 11 15 11 5 14 14 10 33 -5
22 -2 26 20 27 43 3 51 11 65 57 11 40 15 45 39 44 20 -2 26 2 24 17 -1 13 2
15 10 7 23 -23 42 -12 41 23 -1 22 5 42 18 56 10 11 21 30 23 41 2 12 13 29
25 39 11 9 20 25 20 34 0 9 7 16 15 16 8 0 15 4 15 9 0 23 88 19 106 -5z
m-7056 -8 c0 -3 -4 -8 -10 -11 -5 -3 -10 -1 -10 4 0 6 5 11 10 11 6 0 10 -2
10 -4z m5930 -130 c0 -3 -4 -8 -10 -11 -5 -3 -10 -1 -10 4 0 6 5 11 10 11 6 0
10 -2 10 -4z m-6513 -171 c0 -8 -4 -15 -9 -15 -4 0 -8 7 -8 15 0 8 4 15 8 15
5 0 9 -7 9 -15z m397 -37 c-4 -6 2 -7 15 -3 20 6 20 5 10 -19 -9 -20 -9 -29 1
-41 8 -10 9 -15 1 -15 -7 0 -8 -8 -1 -25 6 -15 6 -26 0 -30 -6 -4 -10 -1 -10
4 0 6 -6 11 -14 11 -9 0 -12 -7 -9 -20 3 -11 0 -20 -6 -20 -6 0 -11 -7 -11
-15 0 -12 -3 -12 -17 3 -28 28 -41 65 -32 90 5 13 5 22 -1 22 -6 0 -6 9 0 24
5 13 6 27 2 30 -3 4 4 9 16 13 12 3 22 12 22 21 0 13 3 12 20 -3 11 -10 17
-22 14 -27z m-409 -11 c0 -10 7 -22 15 -27 11 -7 12 -12 3 -21 -16 -16 -53 19
-50 49 2 27 32 26 32 -1z m465 -17 c0 -5 -4 -10 -10 -10 -5 0 -10 5 -10 10 0
6 5 10 10 10 6 0 10 -4 10 -10z m3355 -30 c-3 -5 -12 -10 -18 -10 -7 0 -6 4 3
10 19 12 23 12 15 0z m-3830 -49 c-3 -6 -11 -9 -16 -6 -5 4 -9 1 -9 -4 0 -6 5
-11 12 -11 19 0 -3 -17 -32 -24 -20 -6 -22 -5 -8 4 10 6 15 17 11 27 -7 19 26
48 40 34 5 -5 6 -14 2 -20z m470 19 c-3 -5 -1 -10 5 -10 6 0 8 -5 4 -11 -4 -8
-9 -7 -15 2 -7 12 -3 29 7 29 3 0 2 -4 -1 -10z m-465 -70 c0 -5 -5 -10 -11
-10 -5 0 -7 5 -4 10 3 6 8 10 11 10 2 0 4 -4 4 -10z m468 -8 c2 -7 -1 -12 -8
-12 -6 0 -9 4 -6 9 4 5 1 12 -4 14 -6 3 -5 4 2 3 6 -1 14 -8 16 -14z m7723
-36 c14 -29 -3 -262 -23 -320 -17 -52 -31 -55 -57 -13 -12 19 -37 42 -55 51
-66 31 -103 124 -85 214 12 60 26 71 103 82 92 14 106 12 117 -14z m-1006 -6
c17 -19 17 -19 -9 -7 -14 7 -26 15 -26 20 0 13 17 7 35 -13z m355 -45 c47 -9
86 -17 86 -18 1 -1 21 -31 44 -67 48 -75 49 -114 4 -161 -14 -15 -23 -32 -20
-38 4 -5 -7 -17 -24 -26 -16 -8 -30 -23 -30 -33 1 -26 34 -93 63 -128 15 -18
27 -36 27 -40 0 -5 14 -29 30 -54 17 -26 30 -58 30 -76 0 -20 18 -58 53 -111
28 -44 58 -89 65 -101 7 -12 21 -22 31 -22 10 0 25 -7 32 -16 11 -13 11 -20
-2 -42 -13 -23 -20 -26 -72 -26 -49 -1 -62 -5 -78 -25 -25 -30 -24 -41 6 -82
86 -115 103 -143 98 -155 -7 -19 -49 -18 -57 1 -3 8 -13 15 -22 15 -11 0 -14
-5 -10 -16 4 -9 1 -23 -5 -31 -9 -10 -9 -17 -1 -25 20 -20 14 -23 -40 -22 -94
1 -88 -4 -88 74 0 39 4 78 9 88 33 66 31 112 -4 112 -16 0 -47 35 -38 43 3 4
-3 7 -14 7 -11 0 -28 -9 -39 -21 -10 -11 -26 -18 -35 -16 -19 5 -16 -14 5 -42
9 -12 7 -13 -9 -7 -11 4 -32 10 -47 13 -32 6 -37 29 -10 49 16 13 16 13 0 14
-20 0 -24 15 -8 25 6 4 8 11 5 16 -8 12 22 42 35 34 5 -3 7 0 5 7 -3 7 -17 18
-32 25 -29 14 -51 7 -34 -10 14 -14 14 -27 1 -27 -5 0 -10 7 -10 16 0 12 -7
14 -29 9 -32 -7 -40 -1 -71 53 -18 29 -50 44 -50 23 0 -14 -32 -18 -56 -8 -15
6 -29 4 -46 -7 -22 -14 -27 -15 -37 -2 -26 31 -7 171 32 233 13 21 27 48 31
61 8 25 77 99 116 125 33 21 67 84 53 98 -12 12 -56 14 -108 5 l-40 -8 -26 58
c-22 50 -25 63 -16 98 5 23 14 45 18 51 5 5 9 17 9 26 0 9 12 24 26 34 14 9
23 19 20 23 -10 9 55 36 104 42 51 7 54 7 170 -15z m-368 -7 c-6 -6 -15 -8
-19 -4 -4 4 -1 11 7 16 8 5 17 7 19 4 3 -2 -1 -10 -7 -16z m662 -124 c11 -27
7 -51 -13 -75 -16 -20 -21 -21 -35 -10 -31 26 -13 101 23 101 11 0 22 -7 25
-16z m-7724 -55 c0 -5 -4 -9 -10 -9 -5 0 -10 7 -10 16 0 8 5 12 10 9 6 -3 10
-10 10 -16z m0 -29 c0 -5 10 -6 23 -3 22 6 22 5 -3 -17 -17 -16 -19 -21 -7
-17 18 7 21 -1 11 -27 -5 -13 -8 -13 -20 -1 -8 7 -14 18 -14 24 0 6 -6 11 -13
11 -7 0 -14 11 -15 24 -1 19 2 23 18 19 11 -3 20 -9 20 -13z m4126 11 c-3 -5
1 -14 9 -21 11 -9 12 -16 2 -31 -14 -22 -32 -26 -23 -4 3 8 1 15 -5 15 -6 0
-7 5 -2 13 4 6 8 15 9 20 3 15 4 17 10 17 3 0 3 -4 0 -9z m-730 -49 c7 -18 17
-32 22 -32 13 0 41 -44 45 -69 2 -10 8 -26 15 -33 6 -8 9 -18 5 -21 -3 -4 -2
-7 3 -7 10 0 10 -62 0 -78 -7 -12 -82 12 -103 34 -9 8 -23 12 -34 9 -10 -4
-19 -2 -19 3 0 5 -16 13 -36 17 -70 13 -83 -48 -17 -74 54 -21 108 -66 98 -81
-10 -17 -55 -12 -55 6 0 8 -4 12 -10 9 -5 -3 -10 1 -10 11 0 13 -3 14 -15 4
-8 -6 -19 -9 -25 -5 -13 8 -40 -12 -40 -30 0 -7 16 -29 35 -49 20 -22 35 -48
35 -62 0 -25 -15 -33 -24 -11 -3 8 -8 7 -16 -6 -9 -14 -15 -16 -25 -7 -11 9
-18 7 -33 -7 -11 -10 -22 -25 -25 -33 -4 -11 -7 -10 -12 7 -4 13 -21 28 -41
35 -19 7 -34 16 -34 20 0 4 -5 8 -11 8 -5 0 -7 -4 -4 -10 3 -5 1 -10 -5 -10
-6 0 -10 10 -8 23 3 18 -1 22 -24 20 -16 -1 -28 2 -28 8 0 5 -6 9 -14 9 -18 0
-25 18 -21 56 3 38 29 124 49 163 18 34 58 50 80 32 10 -9 16 -9 21 -1 4 6 16
8 26 5 16 -5 23 0 32 24 7 19 18 31 29 31 11 0 18 7 18 20 0 11 4 20 8 20 5 0
14 11 21 24 16 30 73 62 107 61 20 -1 30 -10 40 -33z m814 18 c0 -5 3 -9 8 -9
29 5 39 -2 34 -26 -4 -22 -7 -24 -20 -13 -13 11 -15 10 -10 -9 8 -28 -3 -30
-20 -3 -8 13 -8 20 -2 20 7 0 8 6 0 19 -13 25 -13 31 0 31 6 0 10 -4 10 -10z
m-109 -81 c-2 -8 -4 -20 -4 -26 0 -7 -4 -14 -9 -14 -4 -1 -12 -2 -17 -3 -12
-1 -26 -15 -27 -27 -1 -5 -2 -10 -4 -11 -4 -6 -12 -49 -23 -128 -6 -47 -17
-91 -25 -99 -21 -22 -64 8 -83 59 -8 23 -19 41 -22 40 -4 -1 -13 1 -20 4 -6 3
-3 4 7 3 16 -2 20 5 23 39 3 51 29 114 47 114 7 0 23 8 35 19 11 10 39 21 62
25 25 4 37 10 33 17 -4 7 1 9 12 7 11 -2 17 -11 15 -19z m3548 9 c72 -23 147
-63 174 -93 54 -57 76 -122 65 -189 -2 -14 12 -24 72 -46 41 -16 87 -29 102
-29 59 -2 88 -104 53 -187 -18 -43 -63 -65 -112 -54 -39 9 -83 36 -83 51 0 5
-20 19 -44 30 -64 28 -97 112 -66 169 13 24 -2 33 -25 16 -31 -23 -63 -6 -124
66 -76 89 -98 167 -70 247 13 35 11 35 58 19z m-2694 -48 c3 -5 -1 -10 -9 -10
-9 0 -16 5 -16 10 0 6 4 10 9 10 6 0 13 -4 16 -10z m-3974 -313 c-10 -9 -11
-8 -5 6 3 10 9 15 12 12 3 -3 0 -11 -7 -18z m3225 -19 c-6 -74 -27 -96 -60
-62 -13 12 -14 18 -3 28 6 8 22 25 34 40 29 33 32 33 29 -6z m-1180 -23 c13
17 14 16 14 -13 0 -18 -4 -32 -8 -32 -5 0 -9 -6 -10 -12 -3 -43 -7 -58 -15
-58 -4 0 -5 -4 -2 -10 3 -5 0 -10 -7 -10 -10 0 -10 -2 0 -9 8 -4 13 -11 12
-15 -1 -4 1 -12 4 -19 5 -9 7 -9 12 1 9 20 21 14 28 -14 9 -35 -23 -77 -70
-92 -21 -6 -40 -9 -42 -7 -3 2 -6 20 -8 40 -2 25 2 35 12 35 8 0 14 5 14 10 0
6 -4 10 -10 10 -14 0 -13 67 1 76 6 3 9 15 6 25 -3 12 0 19 10 19 8 0 11 5 8
10 -3 6 4 14 17 19 13 6 19 10 13 10 -5 1 -11 13 -12 28 -1 24 0 25 9 8 11
-18 11 -18 24 0z m4444 -325 c0 -5 -8 -10 -17 -10 -15 0 -16 2 -3 10 19 12 20
12 20 0z m-105 -30 c3 -5 1 -10 -4 -10 -6 0 -11 5 -11 10 0 6 2 10 4 10 3 0 8
-4 11 -10z m-6555 -21 c0 -11 5 -17 10 -14 6 4 7 12 4 18 -4 7 3 2 15 -10 11
-12 21 -29 21 -38 0 -8 5 -15 11 -15 12 0 2 -42 -13 -51 -5 -3 -2 -12 7 -19 9
-8 13 -20 9 -29 -3 -9 -8 -43 -11 -76 -2 -33 -8 -64 -13 -69 -4 -4 -6 -14 -4
-20 2 -6 -5 -12 -16 -13 -11 -1 -18 2 -15 7 3 5 -3 13 -12 19 -16 9 -16 12 -3
21 8 5 10 10 4 10 -7 0 -12 26 -12 73 0 111 -5 147 -20 147 -9 0 -12 10 -10
28 2 20 8 26 23 25 11 -1 14 0 8 3 -18 8 -16 24 2 24 8 0 15 -9 15 -21z m6594
-10 c-10 -16 -24 -9 -24 12 0 18 2 19 15 9 8 -7 12 -16 9 -21z m-3668 -236
c20 -27 17 -42 -13 -54 -44 -17 -56 -5 -36 36 19 39 30 43 49 18z m2954 -30
c19 -25 61 -75 93 -111 65 -73 94 -123 106 -185 5 -23 21 -100 36 -172 15 -71
29 -165 32 -207 6 -77 6 -78 -18 -79 -13 -1 -30 -1 -36 0 -13 2 -14 1 -18 -34
-5 -48 -42 -135 -57 -135 -5 0 -14 14 -19 30 -6 17 -17 30 -25 30 -8 0 -14 3
-14 8 0 4 -9 13 -19 19 -16 10 -18 9 -14 -5 3 -12 -9 -26 -37 -45 -93 -61
-125 -39 -64 43 20 26 27 61 13 58 -12 -3 -32 44 -44 104 -3 15 -18 42 -34 61
-16 18 -32 50 -36 70 -4 21 -20 56 -36 80 -16 23 -29 47 -28 52 0 6 10 33 23
60 l24 50 -25 11 c-34 15 -43 32 -43 80 0 45 19 91 50 119 11 10 20 24 20 32
0 7 7 16 15 19 8 3 17 15 20 25 6 19 70 68 90 68 6 0 26 -20 45 -46z m838 10
c21 -22 27 -37 26 -66 0 -22 -7 -43 -15 -48 -24 -16 19 -41 56 -33 34 8 146
13 157 7 4 -2 -1 -14 -13 -26 -23 -25 -19 -54 12 -98 21 -30 24 -54 9 -64 -5
-3 -10 -16 -10 -29 0 -31 -33 -63 -77 -75 -50 -14 -49 -15 -91 14 -30 21 -92
35 -92 21 0 -2 11 -37 24 -77 26 -83 24 -147 -8 -207 -9 -18 -16 -43 -16 -55
4 -46 0 -67 -15 -67 -8 0 -19 9 -25 20 -8 14 -17 19 -30 15 -14 -5 -28 7 -60
50 -23 31 -48 55 -59 55 -24 0 -41 59 -43 153 -1 63 3 84 26 130 14 30 39 68
54 84 15 15 41 45 56 66 26 35 27 42 17 81 -8 35 -7 50 7 87 39 98 61 111 110
62z m-6198 2 c11 -13 10 -14 -4 -9 -9 3 -16 10 -16 15 0 13 6 11 20 -6z m110
0 c7 -8 18 -15 24 -15 6 0 25 -13 42 -28 17 -15 36 -26 41 -25 32 11 65 -189
37 -217 -17 -17 -123 5 -146 30 -10 11 -27 20 -38 20 -14 0 -20 10 -25 39 -9
52 4 194 19 203 17 12 32 9 46 -7z m1255 -62 c32 -113 58 -271 51 -308 -9 -47
-21 -51 -58 -20 -18 15 -42 31 -55 36 -19 7 -23 16 -23 49 0 22 -7 52 -16 65
-17 26 -16 44 9 108 15 41 59 97 75 97 5 0 13 -12 17 -27z m1695 11 c0 -9 -9
-18 -19 -21 -11 -3 -21 -13 -24 -24 -7 -25 -27 -24 -27 1 0 23 33 60 55 60 8
0 15 -7 15 -16z m2615 -113 c-5 -16 -2 -18 15 -14 17 5 20 1 20 -26 0 -17 5
-31 10 -31 6 0 10 -7 10 -15 0 -8 6 -15 14 -15 11 0 12 -7 7 -27 -6 -22 -14
-28 -38 -30 -28 -1 -33 3 -47 41 -18 48 -20 89 -6 117 14 25 23 25 15 0z m140
-1 c-3 -5 -13 -10 -21 -10 -8 0 -12 5 -9 10 3 6 13 10 21 10 8 0 12 -4 9 -10z
m-28 -44 c-6 -8 -15 -12 -19 -9 -4 2 -2 10 5 17 6 8 15 12 19 9 4 -2 2 -10 -5
-17z m43 -26 c0 -11 -4 -20 -10 -20 -5 0 -10 -4 -10 -10 0 -5 7 -10 15 -10 8
0 15 -4 15 -10 0 -13 -38 -32 -50 -25 -6 3 -10 2 -10 -4 0 -5 5 -11 12 -13 6
-2 8 -10 4 -17 -6 -9 -11 -9 -22 0 -21 17 -8 87 20 111 28 23 36 22 36 -2z
m-6384 -63 c28 -30 20 -83 -20 -128 -27 -30 -30 -31 -42 -14 -28 39 -9 165 24
165 10 0 27 -10 38 -23z m576 -6 c6 -11 18 -17 26 -13 10 3 13 1 8 -7 -5 -7 4
-16 26 -25 51 -22 108 -72 146 -128 39 -58 50 -94 59 -191 5 -61 3 -71 -21
-107 -14 -22 -30 -40 -35 -40 -5 0 -18 11 -29 25 -26 33 -47 32 -84 -5 -34
-35 -48 -37 -70 -11 -9 10 -24 23 -34 29 -13 7 -18 23 -18 56 -1 25 -5 46 -9
46 -5 0 -5 5 -2 10 3 6 4 10 0 10 -3 0 -14 -4 -25 -10 -49 -24 -60 -30 -94
-44 -20 -8 -34 -11 -31 -7 2 5 -5 11 -16 14 -19 5 -20 11 -14 49 7 47 21 102
35 133 5 11 21 49 36 85 41 97 80 150 109 150 14 0 30 -9 37 -19z m2497 -10
c17 -11 7 -45 -12 -39 -13 5 -23 48 -10 48 4 0 14 -4 22 -9z m4067 -186 c12
-18 14 -35 9 -62 -6 -31 -3 -39 16 -54 22 -16 24 -27 30 -151 3 -73 10 -150
14 -170 9 -48 -11 -59 -54 -27 -56 41 -62 97 -25 254 18 80 18 81 -13 80 -27
0 -28 1 -31 64 -2 35 -1 70 2 77 8 22 34 16 52 -11z m-4965 -20 c1 -8 2 -21 3
-27 4 -22 -5 -29 -17 -16 -18 19 -19 58 -1 58 8 0 15 -7 15 -15z m-206 -86
c-6 -76 -12 -85 -37 -62 -22 20 -19 60 7 100 26 39 35 27 30 -38z m166 11 c2
-15 4 -22 17 -53 7 -16 10 -33 6 -38 -3 -5 0 -9 7 -9 7 0 9 -9 5 -27 -4 -16
-8 -39 -9 -52 -2 -14 -8 -26 -14 -28 -7 -3 -9 -11 -6 -19 3 -8 -1 -14 -8 -14
-15 0 -50 20 -36 20 4 0 3 9 -2 19 -6 11 -13 45 -16 76 -4 47 -1 65 17 96 21
38 37 49 39 29z m3531 -25 c-5 -28 -12 -32 -22 -15 -15 24 -11 42 8 38 11 -2
16 -11 14 -23z m-1205 -19 c-4 -10 2 -16 16 -18 17 -2 23 -11 25 -39 2 -23 -2
-40 -12 -49 -9 -7 -16 -18 -16 -24 0 -6 -9 -17 -20 -24 -27 -17 -121 3 -113
24 3 8 9 14 13 14 5 0 10 12 12 28 2 16 12 31 26 37 12 5 22 13 22 17 0 5 7 8
15 8 8 0 15 9 15 20 0 11 5 20 11 20 6 0 9 -6 6 -14z m-4427 -66 c11 -22 18
-40 14 -40 -4 0 0 -7 7 -16 7 -9 14 -37 15 -63 0 -25 4 -56 8 -68 4 -14 3 -23
-3 -23 -5 0 -13 -9 -16 -20 -6 -19 -37 -29 -32 -10 3 13 -82 90 -101 90 -13 0
-12 -3 4 -15 17 -13 17 -14 2 -15 -27 0 -39 57 -21 100 8 19 16 40 18 45 15
49 20 56 49 64 17 5 32 10 33 10 2 1 12 -17 23 -39z m5655 -9 c8 -26 -5 -53
-24 -49 -10 2 -17 15 -19 36 -3 26 0 32 17 32 11 0 22 -8 26 -19z m-4497 -35
c-13 -10 -15 -15 -6 -24 9 -9 9 -12 -1 -12 -10 0 -11 -3 -2 -13 8 -10 7 -17
-2 -27 -9 -10 -9 -11 0 -6 10 5 11 -1 7 -26 -4 -18 -7 -37 -8 -43 -2 -19 -33
-45 -56 -47 -17 -2 -28 5 -43 30 -17 28 -18 37 -7 65 17 42 89 115 115 116 19
0 19 -1 3 -13z m742 4 c0 -5 -4 -10 -10 -10 -5 0 -10 5 -10 10 0 6 5 10 10 10
6 0 10 -4 10 -10z m3216 2 c19 -13 25 -42 9 -49 -15 -5 -55 30 -55 49 0 10 31
10 46 0z m2324 -12 c0 -5 -4 -10 -9 -10 -6 0 -13 5 -16 10 -3 6 1 10 9 10 9 0
16 -4 16 -10z m-130 -245 c6 -71 12 -142 15 -157 2 -16 -3 -35 -13 -48 -15
-18 -19 -19 -36 -7 -22 16 -45 151 -46 263 0 63 3 73 23 87 36 25 45 3 57
-138z m-6850 92 c0 -5 11 -23 24 -40 29 -39 44 -107 23 -107 -18 0 -117 113
-117 133 0 9 7 23 15 31 13 13 20 13 35 3 11 -6 20 -16 20 -20z m1364 -46 c0
-22 -6 -47 -13 -55 -7 -9 -11 -23 -7 -31 3 -8 1 -15 -5 -15 -6 0 -8 -7 -5 -15
3 -9 -1 -18 -9 -22 -9 -3 -13 -13 -10 -22 3 -10 -7 -30 -24 -49 -17 -18 -25
-32 -19 -32 7 0 6 -5 -2 -15 -17 -20 -38 -19 -44 3 -3 9 -8 43 -11 74 -7 51
-5 60 20 92 15 19 28 41 29 48 5 32 39 67 69 71 18 2 32 5 32 5 0 1 0 -16 -1
-37z m837 -14 c1 -1 -5 -15 -15 -32 -14 -26 -16 -26 -9 -5 4 14 6 39 6 55 -1
27 -1 28 7 7 5 -12 10 -23 11 -25z m4770 16 c79 -66 102 -200 38 -222 -45 -16
-52 0 -64 157 -4 45 -4 82 -1 82 3 0 15 -8 27 -17z m-2757 -45 c-3 -4 0 -8 6
-8 7 0 9 -8 5 -20 -4 -12 -1 -27 5 -35 6 -8 9 -19 5 -25 -3 -5 -2 -10 3 -10 4
0 7 -48 5 -106 -2 -81 -6 -111 -19 -125 -25 -27 -44 -13 -38 28 2 20 -1 42 -7
49 -6 7 -8 18 -5 23 4 5 2 12 -3 16 -5 3 -10 14 -10 25 -1 11 -1 29 -2 40 0
11 -4 22 -8 25 -5 2 -4 28 2 57 10 54 46 105 59 85 4 -6 4 -15 2 -19z m3142
15 c11 -18 10 -89 -1 -170 -6 -44 -24 -59 -53 -44 -50 26 -96 42 -124 44 -23
2 -23 10 2 32 11 10 20 24 20 32 0 7 7 13 15 13 8 0 15 5 15 10 0 16 54 67 67
63 6 -2 14 5 18 16 8 26 26 27 41 4z m-784 -64 c37 -27 108 -95 109 -106 0 -4
2 -16 4 -25 6 -31 -18 -39 -95 -32 -64 6 -73 10 -81 31 -19 51 -5 153 22 153
6 0 24 -10 41 -21z m-4464 -52 c11 4 5 -6 -13 -26 -35 -38 -65 -57 -65 -41 0
5 6 10 13 10 8 0 13 9 12 22 -2 24 28 62 33 41 2 -6 11 -9 20 -6z m1669 7 c-3
-3 8 -28 24 -55 16 -28 29 -55 29 -62 0 -7 7 -25 15 -40 12 -23 12 -38 4 -80
-6 -29 -18 -58 -27 -64 -14 -12 -14 -13 2 -13 9 0 15 -4 11 -10 -3 -5 -13 -6
-22 -3 -13 5 -15 1 -11 -25 4 -25 2 -29 -9 -21 -10 9 -13 8 -13 -4 0 -8 6 -18
13 -20 7 -4 3 -8 -10 -12 -13 -4 -23 -12 -23 -17 0 -5 5 -6 12 -2 6 4 -1 -9
-16 -29 -15 -20 -26 -42 -24 -49 6 -17 -14 -37 -31 -30 -9 3 -12 1 -7 -6 3 -6
2 -14 -4 -17 -8 -5 -6 -15 4 -31 23 -33 21 -47 -4 -34 -16 9 -18 8 -14 -5 4
-10 0 -15 -14 -15 -17 0 -19 6 -16 58 2 31 4 80 4 107 1 52 19 117 30 110 4
-2 4 17 0 43 -12 79 -4 134 29 200 17 34 31 72 31 85 0 24 17 47 34 47 5 0 7
-3 3 -6z m-1420 -56 c-7 -5 -1 -8 16 -8 23 0 27 -4 27 -31 0 -20 4 -28 12 -23
7 4 8 3 4 -5 -4 -6 -12 -9 -17 -6 -5 4 -9 1 -9 -6 0 -7 -9 -9 -27 -5 -16 4
-40 7 -55 6 -22 0 -28 5 -33 30 -7 32 9 65 26 54 5 -3 19 2 31 10 17 12 24 13
29 4 5 -7 3 -16 -4 -20z m-1737 -34 c0 -8 5 -23 11 -33 9 -14 7 -34 -12 -94
-13 -43 -27 -77 -32 -77 -4 0 -6 -4 -2 -9 5 -9 -33 -27 -40 -19 -1 1 -5 31 -9
65 -5 49 -2 72 14 114 27 68 70 101 70 53z m6586 -57 c7 -21 -30 -62 -46 -52
-6 3 -10 34 -10 68 l0 62 25 -30 c13 -16 27 -38 31 -48z m-5776 53 c-13 -8
-13 -10 0 -15 23 -8 22 -53 -2 -61 -19 -6 -19 -6 -1 -21 17 -14 17 -14 0 -9
-14 5 -17 2 -12 -13 8 -25 -11 -36 -33 -20 -14 11 -15 11 -5 0 9 -11 9 -17 -2
-28 -31 -31 -58 2 -46 58 5 24 12 33 24 31 11 -2 17 4 17 18 0 11 5 20 10 20
6 0 9 4 8 9 -3 11 32 40 47 41 6 0 3 -4 -5 -10z m-350 -60 c0 -5 -2 -10 -4
-10 -3 0 -8 5 -11 10 -3 6 -1 10 4 10 6 0 11 -4 11 -10z m5478 -6 c5 3 18 -1
28 -9 10 -8 39 -15 64 -15 32 0 54 -7 74 -23 26 -21 29 -30 33 -98 2 -40 11
-102 19 -137 11 -46 12 -71 5 -99 -6 -20 -8 -40 -5 -44 3 -5 -1 -6 -9 -3 -8 3
-31 -4 -52 -16 -46 -26 -54 -20 -69 56 l-12 58 -23 -25 -22 -24 -20 25 c-12
14 -29 35 -39 47 -22 25 -53 81 -57 103 -2 8 -1 25 2 37 6 27 26 22 74 -20 24
-20 36 -25 41 -17 16 26 -2 54 -74 119 -30 27 -32 42 -10 77 13 19 20 22 30
13 7 -6 17 -8 22 -5z m-1740 -41 c2 -27 -2 -44 -13 -53 -14 -12 -18 -11 -26 1
-13 20 -11 73 3 87 20 20 33 8 36 -35z m-2502 22 c-3 -9 0 -15 9 -15 21 0 87
-70 81 -86 -3 -8 -1 -14 4 -14 6 0 10 -7 10 -15 0 -18 -43 -37 -64 -29 -8 3
-17 1 -21 -5 -3 -6 -11 -11 -16 -11 -6 0 -7 5 -3 11 4 7 1 10 -7 7 -15 -5 -19
-36 -7 -53 3 -6 -11 -25 -33 -43 l-39 -33 0 43 c0 24 6 52 14 63 7 11 12 31
11 45 -1 14 0 29 3 34 3 5 7 27 9 50 2 23 10 46 20 54 23 16 36 15 29 -3z
m-144 -45 c9 -23 13 -214 5 -250 -2 -8 -7 -37 -12 -64 -4 -27 -13 -60 -20 -73
l-13 -25 -12 22 c-8 15 -11 56 -8 116 3 82 2 94 -13 94 -9 0 -28 -9 -42 -20
-14 -11 -30 -20 -36 -20 -36 0 -69 87 -41 105 6 4 22 24 36 46 36 58 60 79 92
80 15 0 22 3 15 6 -10 3 -10 7 0 18 15 16 34 2 49 -35z m4685 12 c29 -18 18
-142 -13 -142 -32 0 -53 74 -34 120 13 30 25 36 47 22z m-1854 -34 c13 -19 1
-67 -19 -75 -20 -7 -24 -2 -31 42 -8 51 25 73 50 33z m-323 -8 c0 -5 -4 -10
-9 -10 -6 0 -13 5 -16 10 -3 6 1 10 9 10 9 0 16 -4 16 -10z m2498 -22 c7 -7
12 -20 12 -30 0 -10 4 -18 8 -18 18 0 75 -57 94 -95 12 -22 25 -43 30 -46 6
-4 12 -37 15 -75 2 -38 11 -97 20 -131 21 -83 13 -139 -24 -169 -15 -13 -36
-23 -45 -24 -36 0 -84 153 -103 330 -3 30 -10 72 -16 93 -13 51 -21 177 -11
177 4 0 13 -5 20 -12z m-2523 -19 c0 -8 6 -18 13 -22 7 -5 10 -13 6 -18 -4 -6
-11 -6 -20 2 -11 9 -18 9 -29 -1 -13 -11 -11 -16 20 -37 19 -13 36 -31 36 -41
6 -74 -3 -108 -34 -133 -25 -21 -32 -55 -12 -63 8 -3 15 -12 15 -21 0 -8 6
-14 13 -12 20 4 10 -94 -11 -101 -6 -2 -9 -9 -6 -15 2 -7 -11 -17 -32 -23 -31
-10 -38 -9 -55 9 -10 11 -20 26 -20 31 -10 98 -10 141 0 144 5 2 7 16 4 33 -2
17 0 29 6 29 6 0 11 8 11 17 0 9 8 25 17 35 11 13 18 38 19 71 2 71 9 102 25
120 16 19 34 17 34 -4z m-4805 -19 c0 -5 6 -7 14 -4 9 3 17 -3 21 -16 9 -29 0
-36 -30 -20 -24 13 -35 50 -15 50 6 0 10 -4 10 -10z m7230 -202 c7 -29 15 -73
16 -98 1 -25 3 -49 4 -55 8 -38 -15 -85 -41 -85 -18 0 -87 78 -77 88 5 5 11
27 13 48 3 21 10 58 16 81 6 23 9 47 6 55 -2 7 0 21 5 31 9 17 11 17 27 3 9
-9 23 -39 31 -68z m-4610 58 c-1 -5 4 -13 12 -18 10 -7 10 -11 1 -15 -9 -3
-10 -10 -3 -23 15 -27 3 -45 -29 -48 -31 -2 -50 22 -25 32 8 3 14 19 14 39 0
35 7 50 23 44 5 -1 8 -6 7 -11z m-195 -30 c43 -18 44 -36 9 -105 -37 -75 -81
-64 -78 20 1 31 23 99 32 99 1 0 18 -7 37 -14z m1795 -52 c0 -19 -16 -18 -24
2 -11 27 -7 37 9 24 8 -7 15 -19 15 -26z m1253 -19 c37 -6 90 -64 75 -82 -8
-10 -7 -13 3 -13 8 0 22 -18 31 -40 12 -28 23 -40 37 -40 12 0 21 -4 21 -10 0
-5 7 -10 15 -10 8 0 15 -5 15 -10 0 -6 12 -22 27 -36 27 -25 35 -80 14 -93
-14 -9 -31 -57 -31 -89 0 -25 0 -25 16 -6 14 17 15 17 10 1 -3 -10 -6 -21 -6
-23 0 -2 -6 -4 -14 -4 -8 0 -17 -11 -20 -25 -7 -29 -40 -65 -58 -65 -9 0 -8 4
2 10 12 8 11 10 -7 10 -19 0 -23 6 -23 29 0 17 -5 33 -10 36 -7 4 -7 12 0 25
11 20 4 50 -11 50 -10 0 -19 -17 -23 -43 -1 -8 -8 -23 -16 -32 -12 -15 -16
-13 -37 22 -13 21 -28 48 -34 61 -9 24 -34 20 -25 -3 6 -18 -23 -24 -51 -11
-21 9 -23 15 -23 97 0 71 3 90 16 97 9 5 18 21 19 35 2 14 5 30 8 34 3 4 1 32
-5 62 -12 69 -6 85 30 77 15 -3 40 -8 55 -11z m2302 -32 c9 -13 14 -31 11 -39
-3 -8 -1 -14 5 -14 6 0 7 -6 1 -16 -5 -10 -6 -32 -1 -53 11 -47 11 -81 0 -81
-5 0 -34 30 -65 66 -53 62 -72 69 -41 14 17 -29 19 -70 5 -70 -6 0 -15 12 -21
28 l-11 27 -10 -25 c-19 -47 -25 -55 -47 -58 -17 -3 -21 2 -21 22 0 38 15 69
52 108 18 20 35 46 36 58 6 38 50 73 79 63 6 -3 19 -16 28 -30z m-5151 -11
c-9 -31 -23 -27 -20 6 5 37 5 37 16 26 5 -5 7 -19 4 -32z m1617 -20 c17 -22
18 -28 7 -37 -21 -16 -52 -87 -40 -94 20 -13 42 -71 38 -103 -2 -18 -4 -43 -5
-55 -1 -14 -11 -24 -31 -32 -31 -10 -32 -13 -32 -71 l1 -35 -9 35 c-5 19 -6
45 -4 56 3 12 1 39 -5 61 -17 63 -20 103 -9 137 6 17 10 55 9 84 -3 74 4 90
34 84 14 -2 35 -16 46 -30z m-238 1 c44 -88 42 -283 -2 -283 -10 0 -66 113
-77 154 -5 20 -9 24 -15 15 -4 -7 -3 -19 2 -25 6 -7 11 -27 11 -44 1 -17 5
-33 9 -35 4 -3 -1 -30 -12 -60 -10 -30 -19 -66 -19 -80 0 -34 -37 -114 -56
-122 -28 -11 -43 27 -38 97 2 36 6 103 9 150 2 62 8 87 19 96 9 6 16 18 16 27
0 17 34 32 50 22 6 -4 10 9 10 32 0 40 14 67 40 76 29 11 40 7 53 -20z m47 7
c0 -5 -4 -10 -10 -10 -5 0 -10 5 -10 10 0 6 5 10 10 10 6 0 10 -4 10 -10z
m2262 -20 c-1 -7 1 -17 6 -24 5 -6 8 -18 6 -26 -10 -47 -25 -107 -29 -118 -3
-9 -13 -5 -30 14 -19 20 -22 30 -14 40 6 7 8 22 4 33 -7 23 4 73 15 66 4 -3
10 5 13 16 6 22 34 21 29 -1z m638 -36 c0 -65 -19 -71 -34 -9 -7 32 -6 40 10
52 10 7 19 13 21 13 2 0 3 -25 3 -56z m-4354 -9 c1 -14 -2 -25 -6 -25 -11 0
-18 -38 -25 -118 -3 -37 -11 -69 -20 -78 -8 -9 -16 -23 -16 -32 -1 -9 -5 1
-10 23 -4 23 -4 64 2 96 5 31 6 64 3 73 -5 12 0 19 14 23 13 3 19 10 15 19 -4
10 0 12 11 8 12 -4 16 0 16 15 0 30 15 26 16 -4z m1304 -5 c0 -5 -5 -10 -11
-10 -5 0 -7 5 -4 10 3 6 8 10 11 10 2 0 4 -4 4 -10z m2555 -117 c1 -78 -2 -97
-17 -113 -10 -11 -25 -20 -32 -20 -14 0 -28 58 -18 75 6 10 12 67 12 113 0 13
8 34 18 47 15 20 18 21 26 7 5 -9 10 -58 11 -109z m-1080 77 c3 -5 1 -10 -4
-10 -6 0 -11 5 -11 10 0 6 2 10 4 10 3 0 8 -4 11 -10z m-4973 -32 c3 -15 0
-28 -5 -28 -5 0 -6 -12 -3 -26 4 -15 3 -23 -2 -20 -6 3 -12 -2 -15 -13 -5 -19
-38 -33 -56 -22 -6 4 -13 24 -16 44 -6 33 -2 41 23 65 39 37 69 37 74 0z
m4888 20 c0 -7 3 -23 6 -35 5 -18 2 -23 -13 -23 -16 0 -18 6 -15 35 4 32 22
51 22 23z m-2850 -43 c0 -8 5 -15 10 -15 6 0 10 -5 10 -11 0 -8 -5 -8 -15 1
-13 11 -20 9 -12 -5 2 -5 -37 -35 -41 -30 -2 1 5 19 14 39 18 37 34 47 34 21z
m2851 -35 c2 -14 2 -46 0 -72 -2 -31 -16 -6 -25 45 -6 30 -4 37 9 37 8 0 16
-4 16 -10z m2435 2 c7 -4 19 -24 28 -45 9 -24 20 -36 27 -31 16 10 29 -15 29
-58 0 -43 -10 -53 -36 -33 -27 20 -31 19 -37 -15 -5 -21 -11 -28 -22 -24 -8 3
-15 14 -15 24 0 10 -7 23 -15 30 -20 16 -20 92 0 130 16 31 22 35 41 22z
m-6216 -83 c0 -5 -7 -9 -15 -9 -9 0 -12 6 -9 15 6 15 24 11 24 -6z m2550 -30
c0 -21 -4 -39 -10 -39 -11 0 -24 65 -15 80 12 20 25 -1 25 -41z m2561 7 c5
-50 -17 -99 -32 -74 -10 15 -12 82 -3 91 9 8 34 -3 35 -17z m-364 -32 c2 -21
6 -59 9 -82 6 -41 -7 -75 -22 -59 -4 3 -8 47 -10 97 -2 68 0 90 9 87 6 -2 13
-21 14 -43z m-1319 17 c3 -8 -1 -12 -9 -9 -7 2 -15 10 -17 17 -3 8 1 12 9 9 7
-2 15 -10 17 -17z m2682 -105 c12 -90 4 -142 -25 -166 -21 -17 -27 20 -29 156
-1 92 2 116 14 124 20 12 26 -7 40 -114z m530 104 c6 -11 7 -20 3 -20 -4 0 -1
-5 8 -10 10 -6 16 -26 18 -56 1 -26 4 -51 7 -55 2 -4 0 -10 -6 -14 -6 -4 -8
-10 -5 -15 3 -5 1 -11 -5 -15 -8 -5 -15 21 -11 47 0 3 -8 33 -19 65 -22 64
-25 93 -10 93 5 0 14 -9 20 -20z m-1260 -16 c21 -54 1 -122 -41 -145 -29 -15
-39 2 -39 68 0 72 13 103 45 103 18 0 28 -7 35 -26z m-5484 -1 c17 -23 18 -74
0 -98 -33 -46 -70 28 -41 84 18 36 23 37 41 14z m6653 -2 c0 -3 -4 -15 -8 -26
-7 -17 -9 -16 -13 11 -3 24 -1 31 9 27 7 -3 13 -8 12 -12z m-3132 -27 c-9 -9
-28 6 -21 18 4 6 10 6 17 -1 6 -6 8 -13 4 -17z m211 -46 c2 -24 8 -48 14 -55
17 -21 -60 -138 -78 -120 -7 7 -7 42 -1 67 2 8 9 42 17 75 21 95 40 108 48 33z
m-4595 -17 c-3 -12 -9 -21 -14 -21 -11 0 -12 41 -2 66 6 16 7 15 14 -3 4 -12
5 -30 2 -42z m6122 -118 c5 -35 4 -44 -10 -49 -32 -13 -47 47 -23 86 16 25 24
15 33 -37z m1095 25 c0 -30 -13 -58 -26 -58 -9 0 -14 12 -14 35 0 28 4 35 20
35 11 0 20 -6 20 -12z m-2443 -84 c4 -55 2 -72 -9 -82 -23 -19 -35 3 -43 74
-6 50 -4 63 10 78 26 25 35 9 42 -70z m-1577 -29 c0 -19 -4 -35 -8 -35 -4 0
-8 16 -9 35 -1 19 3 35 8 35 5 0 9 -16 9 -35z m1472 -15 c5 -25 6 -63 2 -85
-8 -56 -42 -131 -54 -119 -5 5 -12 52 -16 105 -6 83 -4 100 11 123 26 39 48
30 57 -24z m-2777 -37 c-3 -8 -5 -20 -5 -26 -1 -23 -29 38 -29 63 l0 25 20
-24 c11 -13 17 -31 14 -38z m5187 -75 c-2 -16 -8 -28 -13 -28 -11 0 -12 84 -2
94 11 10 20 -32 15 -66z m-5272 5 c0 -21 -3 -24 -9 -14 -5 8 -7 20 -4 28 8 21
13 15 13 -14z m2880 -243 c0 -5 -4 -10 -9 -10 -6 0 -13 5 -16 10 -3 6 1 10 9
10 9 0 16 -4 16 -10z"/>
<path d="M816 8615 c-3 -8 -1 -15 4 -15 6 0 10 7 10 15 0 8 -2 15 -4 15 -2 0
-6 -7 -10 -15z"/>
<path d="M690 5880 c0 -5 5 -10 11 -10 5 0 7 5 4 10 -3 6 -8 10 -11 10 -2 0
-4 -4 -4 -10z"/>
<path d="M8010 4566 c0 -2 7 -7 16 -10 8 -3 12 -2 9 4 -6 10 -25 14 -25 6z"/>
<path d="M7950 4465 c-7 -9 -10 -18 -7 -21 3 -3 10 4 17 15 13 25 8 27 -10 6z"/>
<path d="M981 4314 c0 -11 3 -14 6 -6 3 7 2 16 -1 19 -3 4 -6 -2 -5 -13z"/>
<path d="M8176 3419 c-10 -6 -29 -36 -42 -65 -27 -60 -27 -64 -16 -64 14 0
122 112 122 126 0 17 -37 18 -64 3z"/>
<path d="M6130 1740 c-9 -6 -10 -10 -3 -10 6 0 15 5 18 10 8 12 4 12 -15 0z"/>
<path d="M4380 1139 c0 -5 5 -7 10 -4 6 3 10 8 10 11 0 2 -4 4 -10 4 -5 0 -10
-5 -10 -11z"/>
<path d="M7340 870 c13 -33 19 -64 15 -80 -4 -20 -2 -29 9 -33 19 -7 21 4 4
21 -9 9 -8 12 6 12 9 0 14 5 11 10 -3 6 0 10 8 10 23 0 26 22 10 63 -10 24
-22 37 -33 37 -10 0 -26 3 -35 6 -13 6 -13 -1 5 -46z"/>
<path d="M1850 10146 c0 -2 7 -9 15 -16 13 -11 14 -10 9 4 -5 14 -24 23 -24
12z"/>
<path d="M1696 10115 c-11 -8 -15 -15 -9 -15 6 0 16 7 23 15 16 19 11 19 -14
0z"/>
<path d="M1915 10099 c-4 -6 -5 -12 -2 -15 2 -3 7 2 10 11 7 17 1 20 -8 4z"/>
<path d="M1927 10074 c-11 -14 -17 -27 -15 -30 3 -2 14 10 27 26 12 17 18 30
14 30 -4 0 -16 -12 -26 -26z"/>
<path d="M1690 10080 c0 -5 5 -10 11 -10 5 0 7 5 4 10 -3 6 -8 10 -11 10 -2 0
-4 -4 -4 -10z"/>
<path d="M1650 10070 c0 -5 5 -10 11 -10 5 0 7 5 4 10 -3 6 -8 10 -11 10 -2 0
-4 -4 -4 -10z"/>
<path d="M1678 10038 c9 -9 15 -9 24 0 9 9 7 12 -12 12 -19 0 -21 -3 -12 -12z"/>
<path d="M1832 10043 c-6 -2 -10 -9 -7 -13 7 -11 35 -2 35 11 0 10 -8 10 -28
2z"/>
<path d="M1872 10038 c2 -6 10 -14 16 -16 7 -2 10 2 6 12 -7 18 -28 22 -22 4z"/>
<path d="M1938 9956 c-16 -12 -15 -13 11 -12 22 1 27 4 19 14 -6 6 -11 12 -12
12 0 0 -9 -7 -18 -14z"/>
<path d="M1510 9910 c0 -5 5 -10 10 -10 6 0 10 5 10 10 0 6 -4 10 -10 10 -5 0
-10 -4 -10 -10z"/>
<path d="M620 9900 c0 -5 -9 -10 -20 -10 -11 0 -20 -4 -20 -10 0 -14 33 -13
48 2 15 15 16 28 2 28 -5 0 -10 -4 -10 -10z"/>
<path d="M660 9900 c0 -5 10 -10 23 -10 18 0 19 2 7 10 -19 13 -30 13 -30 0z"/>
<path d="M710 9900 c0 -5 5 -10 11 -10 5 0 7 5 4 10 -3 6 -8 10 -11 10 -2 0
-4 -4 -4 -10z"/>
<path d="M550 9889 c0 -5 5 -7 10 -4 6 3 10 8 10 11 0 2 -4 4 -10 4 -5 0 -10
-5 -10 -11z"/>
<path d="M1530 9880 c0 -5 5 -10 10 -10 6 0 10 5 10 10 0 6 -4 10 -10 10 -5 0
-10 -4 -10 -10z"/>
<path d="M515 9830 c-3 -5 -1 -10 4 -10 6 0 11 5 11 10 0 6 -2 10 -4 10 -3 0
-8 -4 -11 -10z"/>
<path d="M1877 9820 c4 -14 0 -20 -11 -20 -11 0 -16 -7 -14 -17 1 -10 -1 -24
-5 -30 -6 -9 -2 -13 11 -13 15 0 19 5 15 20 -3 12 2 29 12 40 9 10 14 24 10
29 -11 19 -23 12 -18 -9z"/>
<path d="M380 9775 c0 -3 9 -16 21 -28 l21 -22 -13 28 c-11 23 -29 37 -29 22z"/>
<path d="M486 9773 c-11 -11 -6 -23 9 -23 8 0 15 4 15 9 0 13 -16 22 -24 14z"/>
<path d="M650 9770 c0 -5 5 -10 11 -10 5 0 7 5 4 10 -3 6 -8 10 -11 10 -2 0
-4 -4 -4 -10z"/>
<path d="M689 9775 c-1 -3 -2 -8 -3 -12 -1 -5 -4 -13 -8 -18 -4 -6 -3 -17 3
-25 7 -12 9 -12 9 3 0 10 9 21 20 25 20 7 20 7 0 20 -11 7 -21 10 -21 7z"/>
<path d="M540 9761 c0 -5 -12 -13 -27 -18 -16 -6 -23 -12 -16 -16 6 -4 24 4
40 18 15 13 22 25 16 25 -7 0 -13 -4 -13 -9z"/>
<path d="M607 9755 c-19 -13 -23 -35 -7 -35 6 0 10 -9 10 -20 0 -12 7 -20 16
-20 13 0 14 3 4 15 -6 8 -9 19 -5 25 3 5 0 10 -7 11 -7 1 -3 4 8 7 17 6 19 10
10 18 -9 8 -17 8 -29 -1z"/>
<path d="M447 9733 c-4 -6 0 -13 8 -17 8 -3 17 0 21 6 4 6 3 8 -4 4 -5 -3 -12
-1 -14 6 -3 8 -6 9 -11 1z"/>
<path d="M652 9695 c6 -14 17 -25 24 -25 9 0 10 6 1 25 -7 14 -18 25 -24 25
-10 0 -10 -6 -1 -25z"/>
<path d="M1803 9705 c-3 -9 2 -22 13 -30 16 -12 21 -12 34 1 12 11 12 16 1 26
-11 10 -14 10 -18 1 -3 -7 -9 -13 -14 -13 -4 0 -6 7 -3 15 4 8 3 15 0 15 -4 0
-9 -7 -13 -15z"/>
<path d="M433 9675 c-7 -8 -13 -18 -13 -24 0 -5 -6 -12 -12 -14 -7 -3 -3 -6 9
-6 12 -1 23 -7 26 -13 2 -8 8 -9 13 -4 5 5 4 11 -3 13 -7 3 -13 11 -13 19 0 9
5 12 10 9 6 -3 10 3 10 14 0 24 -10 26 -27 6z"/>
<path d="M700 9683 c0 -5 7 -18 15 -29 13 -18 14 -18 8 4 -5 22 -23 41 -23 25z"/>
<path d="M487 9674 c-13 -13 -7 -24 14 -24 11 0 19 5 17 12 -5 14 -22 21 -31
12z"/>
<path d="M1425 9620 c-13 -25 -14 -34 -4 -40 31 -20 52 23 30 59 -7 11 -13 6
-26 -19z m19 -25 c-4 -8 -10 -12 -15 -9 -11 6 -2 24 11 24 5 0 7 -7 4 -15z"/>
<path d="M475 9630 c3 -5 8 -10 11 -10 2 0 4 5 4 10 0 6 -5 10 -11 10 -5 0 -7
-4 -4 -10z"/>
<path d="M735 9610 c10 -11 21 -17 25 -15 5 3 10 2 13 -2 2 -5 2 -3 1 4 -2 6
2 14 9 17 7 3 2 3 -10 0 -13 -3 -23 -1 -23 5 0 6 -7 11 -17 11 -14 0 -14 -2 2
-20z"/>
<path d="M1860 9571 c0 -6 4 -13 10 -16 6 -3 7 1 4 9 -7 18 -14 21 -14 7z"/>
<path d="M2860 9555 c0 -16 16 -20 24 -6 3 5 -1 11 -9 15 -9 3 -15 0 -15 -9z"/>
<path d="M379 9478 c-7 -13 -17 -26 -23 -30 -8 -5 -7 -8 2 -8 7 0 15 7 18 15
4 8 10 12 15 9 5 -3 9 4 9 15 0 27 -6 26 -21 -1z"/>
<path d="M2755 9480 c-4 -6 5 -9 19 -8 15 1 26 6 26 10 0 12 -38 10 -45 -2z"/>
<path d="M730 9472 c0 -5 14 -12 30 -14 33 -5 28 6 -7 17 -13 3 -23 2 -23 -3z"/>
<path d="M1290 9414 c0 -14 3 -14 15 -4 17 14 17 14 33 -15 11 -19 11 -18 12
8 0 23 -4 27 -30 27 -21 0 -30 -5 -30 -16z"/>
<path d="M2640 9425 c0 -18 19 -40 26 -32 4 4 0 15 -9 24 -9 10 -17 13 -17 8z"/>
<path d="M1825 9410 c-3 -5 1 -10 10 -10 9 0 13 5 10 10 -3 6 -8 10 -10 10 -2
0 -7 -4 -10 -10z"/>
<path d="M335 9370 c3 -5 8 -10 11 -10 2 0 4 5 4 10 0 6 -5 10 -11 10 -5 0 -7
-4 -4 -10z"/>
<path d="M360 9330 c0 -5 9 -10 20 -10 11 0 20 5 20 10 0 6 -9 10 -20 10 -11
0 -20 -4 -20 -10z"/>
<path d="M1180 9329 c0 -5 5 -7 10 -4 6 3 10 8 10 11 0 2 -4 4 -10 4 -5 0 -10
-5 -10 -11z"/>
<path d="M2790 9325 c-14 -16 -10 -18 14 -9 9 3 16 10 16 15 0 14 -16 11 -30
-6z"/>
<path d="M793 9307 c-28 -12 -29 -22 -4 -24 11 -1 22 5 25 14 8 21 5 22 -21
10z"/>
<path d="M2856 9277 c3 -10 9 -15 12 -12 3 3 0 11 -7 18 -10 9 -11 8 -5 -6z"/>
<path d="M1210 9250 c0 -5 5 -10 11 -10 5 0 7 5 4 10 -3 6 -8 10 -11 10 -2 0
-4 -4 -4 -10z"/>
<path d="M1780 9225 c0 -8 5 -15 10 -15 6 0 10 7 10 15 0 8 -4 15 -10 15 -5 0
-10 -7 -10 -15z"/>
<path d="M360 9221 c0 -5 7 -15 17 -22 15 -13 15 -12 4 9 -12 23 -21 28 -21
13z"/>
<path d="M1747 9223 c-11 -10 -8 -20 6 -26 8 -3 13 3 13 14 0 19 -8 24 -19 12z"/>
<path d="M720 9210 c0 -5 5 -10 11 -10 5 0 7 5 4 10 -3 6 -8 10 -11 10 -2 0
-4 -4 -4 -10z"/>
<path d="M820 9185 c0 -8 4 -15 10 -15 5 0 7 7 4 15 -4 8 -8 15 -10 15 -2 0
-4 -7 -4 -15z"/>
<path d="M400 9180 c0 -5 5 -10 11 -10 5 0 7 5 4 10 -3 6 -8 10 -11 10 -2 0
-4 -4 -4 -10z"/>
<path d="M729 9172 c7 -13 7 -22 0 -29 -5 -5 -7 -17 -4 -25 7 -17 45 -32 45
-17 0 5 -4 9 -10 9 -5 0 -10 5 -10 11 0 5 5 7 10 4 15 -10 12 18 -6 43 -19 27
-39 30 -25 4z"/>
<path d="M2558 9165 c-6 -28 6 -34 16 -9 8 22 7 34 -3 34 -5 0 -11 -11 -13
-25z"/>
<path d="M790 9165 c0 -8 4 -15 10 -15 5 0 7 7 4 15 -4 8 -8 15 -10 15 -2 0
-4 -7 -4 -15z"/>
<path d="M1710 9168 c0 -7 11 -18 25 -25 20 -9 25 -8 25 3 0 8 -7 14 -16 14
-8 0 -12 5 -9 10 3 6 -1 10 -9 10 -9 0 -16 -6 -16 -12z"/>
<path d="M410 9110 c-13 -8 -12 -10 3 -10 9 0 17 5 17 10 0 12 -1 12 -20 0z"/>
<path d="M856 9105 c4 -8 8 -15 10 -15 2 0 4 7 4 15 0 8 -4 15 -10 15 -5 0 -7
-7 -4 -15z"/>
<path d="M423 9058 c1 -21 4 -24 14 -16 7 6 13 16 13 22 0 6 -4 5 -9 -3 -7
-11 -10 -10 -14 5 -3 12 -4 9 -4 -8z"/>
<path d="M728 9073 c7 -3 16 -2 19 1 4 3 -2 6 -13 5 -11 0 -14 -3 -6 -6z"/>
<path d="M835 9070 c3 -5 10 -10 16 -10 5 0 9 5 9 10 0 6 -7 10 -16 10 -8 0
-12 -4 -9 -10z"/>
<path d="M470 9046 c0 -18 6 -19 35 -6 11 5 15 9 8 9 -6 1 -18 4 -27 7 -11 4
-16 1 -16 -10z"/>
<path d="M395 9040 c-3 -5 -1 -10 4 -10 6 0 11 5 11 10 0 6 -2 10 -4 10 -3 0
-8 -4 -11 -10z"/>
<path d="M810 9029 c0 -5 5 -7 10 -4 6 3 10 8 10 11 0 2 -4 4 -10 4 -5 0 -10
-5 -10 -11z"/>
<path d="M841 9004 c0 -11 3 -14 6 -6 3 7 2 16 -1 19 -3 4 -6 -2 -5 -13z"/>
<path d="M980 9000 c-9 -6 -10 -10 -3 -10 6 0 15 5 18 10 8 12 4 12 -15 0z"/>
<path d="M855 8960 c-3 -5 -1 -10 4 -10 6 0 11 5 11 10 0 6 -2 10 -4 10 -3 0
-8 -4 -11 -10z"/>
<path d="M1020 8960 c0 -6 7 -10 15 -10 8 0 15 2 15 4 0 2 -7 6 -15 10 -8 3
-15 1 -15 -4z"/>
<path d="M890 8956 c0 -2 7 -7 16 -10 8 -3 12 -2 9 4 -6 10 -25 14 -25 6z"/>
<path d="M842 8912 c-21 -16 -21 -19 -6 -37 15 -19 15 -19 10 -1 -4 11 0 27
10 37 21 24 16 24 -14 1z"/>
<path d="M1032 8903 c2 -10 12 -19 23 -21 19 -3 19 -2 3 11 -10 8 -15 17 -11
20 3 4 1 7 -6 7 -7 0 -11 -8 -9 -17z"/>
<path d="M447 8899 c7 -7 15 -10 18 -7 3 3 -2 9 -12 12 -14 6 -15 5 -6 -5z"/>
<path d="M985 8900 c3 -5 10 -10 16 -10 5 0 9 5 9 10 0 6 -7 10 -16 10 -8 0
-12 -4 -9 -10z"/>
<path d="M950 8891 c0 -5 5 -13 10 -16 6 -3 10 -2 10 4 0 5 -4 13 -10 16 -5 3
-10 2 -10 -4z"/>
<path d="M800 8870 c-13 -8 -12 -10 3 -10 9 0 17 5 17 10 0 12 -1 12 -20 0z"/>
<path d="M890 8876 c0 -2 7 -6 15 -10 8 -3 15 -1 15 4 0 6 -7 10 -15 10 -8 0
-15 -2 -15 -4z"/>
<path d="M1114 8868 c4 -20 26 -21 26 -1 0 14 -2 15 -9 4 -6 -9 -10 -10 -14
-2 -4 8 -5 8 -3 -1z"/>
<path d="M1660 8869 c0 -5 5 -7 10 -4 6 3 10 8 10 11 0 2 -4 4 -10 4 -5 0 -10
-5 -10 -11z"/>
<path d="M986 8861 c-4 -7 -5 -15 -2 -18 9 -9 19 4 14 18 -4 11 -6 11 -12 0z"/>
<path d="M1060 8845 c-7 -9 -10 -18 -7 -21 3 -3 10 4 17 15 13 25 8 27 -10 6z"/>
<path d="M893 8843 c-7 -2 -13 -9 -13 -15 0 -7 5 -7 13 1 8 6 17 8 20 4 4 -3
7 -1 7 5 0 13 -7 14 -27 5z"/>
<path d="M797 8824 c3 -7 9 -14 14 -14 14 0 10 17 -5 23 -10 4 -13 1 -9 -9z"/>
<path d="M932 8824 c-8 -9 -9 -14 -2 -14 6 0 9 -4 6 -9 -3 -4 6 -6 19 -3 30 5
31 13 7 28 -13 9 -20 8 -30 -2z"/>
<path d="M445 8820 c-3 -5 -1 -10 5 -10 6 0 8 -4 5 -10 -3 -5 0 -7 9 -4 8 3
12 12 9 20 -6 16 -19 18 -28 4z"/>
<path d="M725 8790 c0 -16 5 -28 10 -27 13 5 13 49 0 54 -6 2 -10 -10 -10 -27z"/>
<path d="M875 8800 c3 -5 14 -10 23 -10 15 0 15 2 2 10 -20 13 -33 13 -25 0z"/>
<path d="M2437 8789 c7 -7 15 -10 18 -7 3 3 -2 9 -12 12 -14 6 -15 5 -6 -5z"/>
<path d="M941 8768 c-1 -11 6 -16 19 -15 11 1 20 5 20 10 0 5 -6 7 -14 4 -8
-3 -17 -1 -20 6 -2 7 -5 5 -5 -5z"/>
<path d="M830 8760 c20 -13 33 -13 25 0 -3 6 -14 10 -23 10 -15 0 -15 -2 -2
-10z"/>
<path d="M990 8743 c-18 -21 -24 -53 -9 -53 5 0 7 5 3 11 -5 8 1 10 17 7 21
-4 24 -1 23 21 -1 30 -14 36 -34 14z"/>
<path d="M895 8720 c3 -5 8 -10 11 -10 2 0 4 5 4 10 0 6 -5 10 -11 10 -5 0 -7
-4 -4 -10z"/>
<path d="M1025 8682 c-16 -9 -25 -17 -19 -19 14 -5 68 23 57 29 -4 3 -21 -2
-38 -10z"/>
<path d="M1120 8671 c0 -6 5 -13 10 -16 6 -3 10 1 10 9 0 9 -4 16 -10 16 -5 0
-10 -4 -10 -9z"/>
<path d="M2756 8665 c-3 -9 -6 -22 -5 -28 0 -7 5 -1 10 12 5 13 8 26 5 28 -2
2 -6 -3 -10 -12z"/>
<path d="M560 8650 c-2 -3 -3 -22 -4 -43 -1 -27 3 -41 15 -48 14 -7 16 -5 12
11 -3 11 0 20 6 20 6 0 10 -5 9 -11 -2 -6 3 -14 11 -16 10 -4 12 3 9 31 -2 19
1 37 6 39 6 2 2 6 -8 10 -10 4 -15 3 -11 -3 3 -6 -3 -10 -14 -10 -10 0 -22 6
-24 13 -3 6 -6 10 -7 7z m35 -40 c8 -13 -5 -13 -25 0 -13 8 -13 10 2 10 9 0
20 -4 23 -10z"/>
<path d="M2366 8621 c-4 -7 -5 -15 -2 -18 9 -9 19 4 14 18 -4 11 -6 11 -12 0z"/>
<path d="M566 8474 c-4 -10 -1 -14 6 -12 15 5 23 28 10 28 -5 0 -13 -7 -16
-16z"/>
<path d="M2715 8450 c3 -5 8 -10 11 -10 2 0 4 5 4 10 0 6 -5 10 -11 10 -5 0
-7 -4 -4 -10z"/>
<path d="M576 8423 c-11 -3 -26 -12 -35 -20 -13 -14 -13 -15 6 -9 16 5 22 2
25 -19 4 -18 1 -25 -10 -25 -12 0 -12 -2 -1 -17 13 -15 14 -15 17 0 2 10 7 17
11 17 12 0 10 33 -3 49 -8 11 -8 13 2 7 7 -4 12 -1 12 8 0 9 -1 15 -2 15 -2
-1 -12 -4 -22 -6z"/>
<path d="M1521 8304 c0 -11 3 -14 6 -6 3 7 2 16 -1 19 -3 4 -6 -2 -5 -13z"/>
<path d="M435 8290 c3 -5 11 -10 16 -10 6 0 7 5 4 10 -3 6 -11 10 -16 10 -6 0
-7 -4 -4 -10z"/>
<path d="M1440 8189 c0 -5 7 -12 15 -15 8 -4 15 -14 15 -23 0 -14 2 -14 10 -1
14 22 13 26 -15 38 -16 7 -25 8 -25 1z"/>
<path d="M565 8180 c3 -5 8 -10 11 -10 2 0 4 5 4 10 0 6 -5 10 -11 10 -5 0 -7
-4 -4 -10z"/>
<path d="M570 8151 c0 -5 7 -12 16 -15 14 -5 15 -4 4 9 -14 17 -20 19 -20 6z"/>
<path d="M540 8130 c0 -6 7 -10 15 -10 8 0 15 2 15 4 0 2 -7 6 -15 10 -8 3
-15 1 -15 -4z"/>
<path d="M2243 8090 c-1 -11 2 -20 8 -20 5 0 9 9 9 20 0 11 -4 20 -8 20 -4 0
-8 -9 -9 -20z"/>
<path d="M520 8010 c0 -5 5 -10 11 -10 5 0 7 5 4 10 -3 6 -8 10 -11 10 -2 0
-4 -4 -4 -10z"/>
<path d="M1415 8009 c-11 -17 1 -21 15 -4 8 9 8 15 2 15 -6 0 -14 -5 -17 -11z"/>
<path d="M485 7990 c3 -5 14 -10 23 -10 15 0 15 2 2 10 -20 13 -33 13 -25 0z"/>
<path d="M1411 7964 c0 -11 3 -14 6 -6 3 7 2 16 -1 19 -3 4 -6 -2 -5 -13z"/>
<path d="M526 7755 c-3 -8 -1 -15 4 -15 6 0 10 7 10 15 0 8 -2 15 -4 15 -2 0
-6 -7 -10 -15z"/>
<path d="M530 7620 c0 -5 5 -10 10 -10 6 0 10 5 10 10 0 6 -4 10 -10 10 -5 0
-10 -4 -10 -10z"/>
<path d="M2095 7459 c-4 -6 -5 -12 -2 -15 2 -3 7 2 10 11 7 17 1 20 -8 4z"/>
<path d="M5856 7325 c-3 -8 -2 -15 3 -15 5 0 14 7 21 15 10 12 10 15 -3 15 -8
0 -17 -7 -21 -15z"/>
<path d="M5813 7288 c2 -7 10 -13 17 -13 7 0 15 6 18 13 2 7 -5 12 -18 12 -13
0 -20 -5 -17 -12z"/>
<path d="M1208 7283 c7 -3 16 -2 19 1 4 3 -2 6 -13 5 -11 0 -14 -3 -6 -6z"/>
<path d="M5750 7239 c0 -11 47 -12 54 -1 3 5 -8 9 -24 10 -17 0 -30 -4 -30 -9z"/>
<path d="M5790 7191 c0 -12 5 -21 10 -21 6 0 10 6 10 14 0 8 -4 18 -10 21 -5
3 -10 -3 -10 -14z"/>
<path d="M4617 7173 c-4 -3 -7 -11 -7 -17 0 -6 5 -5 12 2 6 6 9 14 7 17 -3 3
-9 2 -12 -2z"/>
<path d="M1090 7076 c0 -2 7 -7 16 -10 8 -3 12 -2 9 4 -6 10 -25 14 -25 6z"/>
<path d="M5003 6790 c-12 -28 -6 -47 9 -32 5 5 8 20 6 33 l-5 24 -10 -25z"/>
<path d="M522 6480 c0 -14 2 -19 5 -12 2 6 2 18 0 25 -3 6 -5 1 -5 -13z"/>
<path d="M495 6469 c-4 -6 -5 -12 -2 -15 2 -3 7 2 10 11 7 17 1 20 -8 4z"/>
<path d="M485 6360 c3 -5 8 -10 11 -10 2 0 4 5 4 10 0 6 -5 10 -11 10 -5 0 -7
-4 -4 -10z"/>
<path d="M7435 6271 c-11 -5 -25 -6 -31 -4 -7 2 -15 0 -18 -6 -4 -6 16 -27 44
-47 27 -20 50 -41 50 -46 0 -6 9 -3 20 7 11 10 20 14 20 9 1 -26 20 26 20 54
0 29 -3 32 -29 32 -16 0 -35 2 -43 4 -7 3 -22 1 -33 -3z"/>
<path d="M475 6261 c-3 -5 -1 -12 5 -16 5 -3 10 1 10 9 0 18 -6 21 -15 7z"/>
<path d="M440 6230 c0 -5 7 -7 15 -4 8 4 15 8 15 10 0 2 -7 4 -15 4 -8 0 -15
-4 -15 -10z"/>
<path d="M2220 6150 c0 -5 5 -10 10 -10 6 0 10 5 10 10 0 6 -4 10 -10 10 -5 0
-10 -4 -10 -10z"/>
<path d="M338 5963 c7 -3 16 -2 19 1 4 3 -2 6 -13 5 -11 0 -14 -3 -6 -6z"/>
<path d="M8116 5292 c-8 -14 12 -38 23 -27 6 6 4 14 -4 22 -8 7 -16 9 -19 5z"/>
<path d="M6618 4562 c-10 -2 -18 -8 -18 -13 0 -13 27 -11 35 2 9 13 4 16 -17
11z"/>
<path d="M6623 4526 c-8 -10 -9 -16 0 -25 14 -14 30 -15 22 -1 -3 6 -2 10 4
10 6 0 8 7 5 15 -7 18 -15 18 -31 1z"/>
<path d="M7170 4320 c18 -12 40 -13 40 -2 0 4 -12 9 -27 10 -22 1 -24 0 -13
-8z"/>
<path d="M7028 4130 c-7 -11 -20 -20 -30 -20 -9 0 -20 -5 -23 -10 -4 -6 -10
-8 -14 -6 -11 7 -25 -6 -38 -36 -12 -26 -11 -27 6 -16 14 9 23 8 41 -5 12 -8
29 -13 37 -10 8 3 30 -3 49 -13 28 -15 36 -16 43 -6 5 8 11 13 15 13 19 -3 26
0 26 10 0 5 -4 7 -10 4 -5 -3 -10 3 -10 14 0 12 -4 21 -10 21 -5 0 -10 9 -10
19 0 13 -8 21 -22 23 -16 2 -22 9 -20 21 4 23 -15 22 -30 -3z"/>
<path d="M4656 4121 c-9 -14 20 -32 39 -25 17 7 17 8 -1 21 -21 15 -31 16 -38
4z"/>
<path d="M6760 4032 c-25 -14 -48 -30 -52 -36 -3 -6 -18 -24 -33 -41 -43 -49
-72 -98 -79 -134 -6 -32 -5 -33 20 -27 22 6 25 4 20 -9 -4 -11 -2 -14 6 -9 8
5 9 2 5 -10 -4 -10 0 -27 8 -39 8 -12 15 -29 15 -38 0 -33 34 -50 89 -46 38 4
51 1 51 -8 0 -20 20 -29 33 -16 8 8 8 11 0 11 -6 0 -13 14 -16 30 -4 17 -13
30 -21 30 -7 0 -19 14 -26 31 -7 17 -20 37 -28 45 -15 16 -20 94 -8 132 4 12
31 38 61 57 51 34 92 81 81 92 -16 16 -85 8 -126 -15z"/>
<path d="M2540 3426 c0 -20 5 -36 10 -36 6 0 10 13 10 29 0 17 -4 33 -10 36
-6 4 -10 -8 -10 -29z"/>
<path d="M7205 3320 c-3 -5 -1 -10 4 -10 6 0 11 5 11 10 0 6 -2 10 -4 10 -3 0
-8 -4 -11 -10z"/>
<path d="M5741 2444 c0 -11 3 -14 6 -6 3 7 2 16 -1 19 -3 4 -6 -2 -5 -13z"/>
<path d="M9430 2410 c-7 -17 -11 -33 -8 -35 8 -8 48 35 48 50 0 26 -27 16 -40
-15z"/>
<path d="M10210 1660 c-27 -53 -26 -70 5 -70 24 0 25 3 25 55 0 30 -2 55 -5
55 -2 0 -14 -18 -25 -40z"/>
</g>
</svg>
